<svg width="229" height="179" viewBox="0 0 229 179" fill="none" xmlns="http://www.w3.org/2000/svg">
<rect width="229" height="179" rx="5" fill="#DCDCDC"/>
<circle cx="12" cy="8" r="2" fill="#FF0000"/>
<circle cx="19" cy="8" r="2" fill="#00FF1A"/>
<circle cx="19" cy="8" r="2" fill="#00FF1A"/>
<circle cx="19" cy="8" r="2" fill="#00FF1A"/>
<circle cx="26" cy="8" r="2" fill="#0500FF"/>
<g clip-path="url(#clip0_128_3)">
<rect width="218" height="159" transform="translate(5 15)" fill="white"/>
<path d="M90.3959 38.96V48.52C90.3959 50 89.9759 51.14 89.1359 51.94C88.3092 52.74 87.1892 53.14 85.7759 53.14C84.2959 53.14 83.1092 52.72 82.2159 51.88C81.3225 51.04 80.8759 49.8467 80.8759 48.3H84.2759C84.2759 48.8867 84.3959 49.3333 84.6359 49.64C84.8759 49.9333 85.2225 50.08 85.6759 50.08C86.0892 50.08 86.4092 49.9467 86.6359 49.68C86.8625 49.4133 86.9759 49.0267 86.9759 48.52V38.96H90.3959ZM100.178 41.7V44.54H104.758V47.18H100.178V50.26H105.358V53H96.7584V38.96H105.358V41.7H100.178ZM127.079 38.96V53H123.659V44.58L120.519 53H117.759L114.599 44.56V53H111.179V38.96H115.219L119.159 48.68L123.059 38.96H127.079ZM141.878 50.52H136.638L135.798 53H132.218L137.298 38.96H141.258L146.338 53H142.718L141.878 50.52ZM140.998 47.88L139.258 42.74L137.538 47.88H140.998Z" fill="#01014F"/>
<path d="M82.7433 72.084C81.9673 72.084 81.2593 71.904 80.6193 71.544C79.9793 71.176 79.4713 70.668 79.0953 70.02C78.7273 69.364 78.5433 68.628 78.5433 67.812C78.5433 66.996 78.7273 66.264 79.0953 65.616C79.4713 64.96 79.9793 64.452 80.6193 64.092C81.2593 63.724 81.9673 63.54 82.7433 63.54C83.5273 63.54 84.2393 63.724 84.8793 64.092C85.5193 64.452 86.0233 64.956 86.3913 65.604C86.7593 66.252 86.9433 66.988 86.9433 67.812C86.9433 68.636 86.7593 69.372 86.3913 70.02C86.0233 70.668 85.5193 71.176 84.8793 71.544C84.2393 71.904 83.5273 72.084 82.7433 72.084ZM82.7433 71.136C83.3273 71.136 83.8513 71 84.3153 70.728C84.7873 70.456 85.1553 70.068 85.4193 69.564C85.6913 69.06 85.8273 68.476 85.8273 67.812C85.8273 67.14 85.6913 66.556 85.4193 66.06C85.1553 65.556 84.7913 65.168 84.3273 64.896C83.8633 64.624 83.3353 64.488 82.7433 64.488C82.1513 64.488 81.6233 64.624 81.1593 64.896C80.6953 65.168 80.3273 65.556 80.0553 66.06C79.7913 66.556 79.6593 67.14 79.6593 67.812C79.6593 68.476 79.7913 69.06 80.0553 69.564C80.3273 70.068 80.6953 70.456 81.1593 70.728C81.6313 71 82.1593 71.136 82.7433 71.136ZM94.2169 65.424V72H93.1249V71.028C92.9169 71.364 92.6249 71.628 92.2489 71.82C91.8809 72.004 91.4729 72.096 91.0249 72.096C90.5129 72.096 90.0529 71.992 89.6449 71.784C89.2369 71.568 88.9129 71.248 88.6729 70.824C88.4409 70.4 88.3249 69.884 88.3249 69.276V65.424H89.4049V69.132C89.4049 69.78 89.5689 70.28 89.8969 70.632C90.2249 70.976 90.6729 71.148 91.2409 71.148C91.8249 71.148 92.2849 70.968 92.6209 70.608C92.9569 70.248 93.1249 69.724 93.1249 69.036V65.424H94.2169ZM97.1527 66.492C97.3447 66.116 97.6167 65.824 97.9687 65.616C98.3287 65.408 98.7647 65.304 99.2767 65.304V66.432H98.9887C97.7647 66.432 97.1527 67.096 97.1527 68.424V72H96.0607V65.424H97.1527V66.492ZM111.645 65.304C112.157 65.304 112.613 65.412 113.013 65.628C113.413 65.836 113.729 66.152 113.961 66.576C114.193 67 114.309 67.516 114.309 68.124V72H113.229V68.28C113.229 67.624 113.065 67.124 112.737 66.78C112.417 66.428 111.981 66.252 111.429 66.252C110.861 66.252 110.409 66.436 110.073 66.804C109.737 67.164 109.569 67.688 109.569 68.376V72H108.489V68.28C108.489 67.624 108.325 67.124 107.997 66.78C107.677 66.428 107.241 66.252 106.689 66.252C106.121 66.252 105.669 66.436 105.333 66.804C104.997 67.164 104.829 67.688 104.829 68.376V72H103.737V65.424H104.829V66.372C105.045 66.028 105.333 65.764 105.693 65.58C106.061 65.396 106.465 65.304 106.905 65.304C107.457 65.304 107.945 65.428 108.369 65.676C108.793 65.924 109.109 66.288 109.317 66.768C109.501 66.304 109.805 65.944 110.229 65.688C110.653 65.432 111.125 65.304 111.645 65.304ZM116.664 64.356C116.456 64.356 116.28 64.284 116.136 64.14C115.992 63.996 115.92 63.82 115.92 63.612C115.92 63.404 115.992 63.228 116.136 63.084C116.28 62.94 116.456 62.868 116.664 62.868C116.864 62.868 117.032 62.94 117.168 63.084C117.312 63.228 117.384 63.404 117.384 63.612C117.384 63.82 117.312 63.996 117.168 64.14C117.032 64.284 116.864 64.356 116.664 64.356ZM117.192 65.424V72H116.1V65.424H117.192ZM121.381 72.108C120.877 72.108 120.425 72.024 120.025 71.856C119.625 71.68 119.309 71.44 119.077 71.136C118.845 70.824 118.717 70.468 118.693 70.068H119.821C119.853 70.396 120.005 70.664 120.277 70.872C120.557 71.08 120.921 71.184 121.369 71.184C121.785 71.184 122.113 71.092 122.353 70.908C122.593 70.724 122.713 70.492 122.713 70.212C122.713 69.924 122.585 69.712 122.329 69.576C122.073 69.432 121.677 69.292 121.141 69.156C120.653 69.028 120.253 68.9 119.941 68.772C119.637 68.636 119.373 68.44 119.149 68.184C118.933 67.92 118.825 67.576 118.825 67.152C118.825 66.816 118.925 66.508 119.125 66.228C119.325 65.948 119.609 65.728 119.977 65.568C120.345 65.4 120.765 65.316 121.237 65.316C121.965 65.316 122.553 65.5 123.001 65.868C123.449 66.236 123.689 66.74 123.721 67.38H122.629C122.605 67.036 122.465 66.76 122.209 66.552C121.961 66.344 121.625 66.24 121.201 66.24C120.809 66.24 120.497 66.324 120.265 66.492C120.033 66.66 119.917 66.88 119.917 67.152C119.917 67.368 119.985 67.548 120.121 67.692C120.265 67.828 120.441 67.94 120.649 68.028C120.865 68.108 121.161 68.2 121.537 68.304C122.009 68.432 122.393 68.56 122.689 68.688C122.985 68.808 123.237 68.992 123.445 69.24C123.661 69.488 123.773 69.812 123.781 70.212C123.781 70.572 123.681 70.896 123.481 71.184C123.281 71.472 122.997 71.7 122.629 71.868C122.269 72.028 121.853 72.108 121.381 72.108ZM127.65 72.108C127.146 72.108 126.694 72.024 126.294 71.856C125.894 71.68 125.578 71.44 125.346 71.136C125.114 70.824 124.986 70.468 124.962 70.068H126.09C126.122 70.396 126.274 70.664 126.546 70.872C126.826 71.08 127.19 71.184 127.638 71.184C128.054 71.184 128.382 71.092 128.622 70.908C128.862 70.724 128.982 70.492 128.982 70.212C128.982 69.924 128.854 69.712 128.598 69.576C128.342 69.432 127.946 69.292 127.41 69.156C126.922 69.028 126.522 68.9 126.21 68.772C125.906 68.636 125.642 68.44 125.418 68.184C125.202 67.92 125.094 67.576 125.094 67.152C125.094 66.816 125.194 66.508 125.394 66.228C125.594 65.948 125.878 65.728 126.246 65.568C126.614 65.4 127.034 65.316 127.506 65.316C128.234 65.316 128.822 65.5 129.27 65.868C129.718 66.236 129.958 66.74 129.99 67.38H128.898C128.874 67.036 128.734 66.76 128.478 66.552C128.23 66.344 127.894 66.24 127.47 66.24C127.078 66.24 126.766 66.324 126.534 66.492C126.302 66.66 126.186 66.88 126.186 67.152C126.186 67.368 126.254 67.548 126.39 67.692C126.534 67.828 126.71 67.94 126.918 68.028C127.134 68.108 127.43 68.2 127.806 68.304C128.278 68.432 128.662 68.56 128.958 68.688C129.254 68.808 129.506 68.992 129.714 69.24C129.93 69.488 130.042 69.812 130.05 70.212C130.05 70.572 129.95 70.896 129.75 71.184C129.55 71.472 129.266 71.7 128.898 71.868C128.538 72.028 128.122 72.108 127.65 72.108ZM132.156 64.356C131.948 64.356 131.772 64.284 131.628 64.14C131.484 63.996 131.412 63.82 131.412 63.612C131.412 63.404 131.484 63.228 131.628 63.084C131.772 62.94 131.948 62.868 132.156 62.868C132.356 62.868 132.524 62.94 132.66 63.084C132.804 63.228 132.876 63.404 132.876 63.612C132.876 63.82 132.804 63.996 132.66 64.14C132.524 64.284 132.356 64.356 132.156 64.356ZM132.684 65.424V72H131.592V65.424H132.684ZM137.413 72.108C136.797 72.108 136.237 71.968 135.733 71.688C135.237 71.408 134.845 71.012 134.557 70.5C134.277 69.98 134.137 69.38 134.137 68.7C134.137 68.028 134.281 67.436 134.569 66.924C134.865 66.404 135.265 66.008 135.769 65.736C136.273 65.456 136.837 65.316 137.461 65.316C138.085 65.316 138.649 65.456 139.153 65.736C139.657 66.008 140.053 66.4 140.341 66.912C140.637 67.424 140.785 68.02 140.785 68.7C140.785 69.38 140.633 69.98 140.329 70.5C140.033 71.012 139.629 71.408 139.117 71.688C138.605 71.968 138.037 72.108 137.413 72.108ZM137.413 71.148C137.805 71.148 138.173 71.056 138.517 70.872C138.861 70.688 139.137 70.412 139.345 70.044C139.561 69.676 139.669 69.228 139.669 68.7C139.669 68.172 139.565 67.724 139.357 67.356C139.149 66.988 138.877 66.716 138.541 66.54C138.205 66.356 137.841 66.264 137.449 66.264C137.049 66.264 136.681 66.356 136.345 66.54C136.017 66.716 135.753 66.988 135.553 67.356C135.353 67.724 135.253 68.172 135.253 68.7C135.253 69.236 135.349 69.688 135.541 70.056C135.741 70.424 136.005 70.7 136.333 70.884C136.661 71.06 137.021 71.148 137.413 71.148ZM145.425 65.304C146.225 65.304 146.873 65.548 147.369 66.036C147.865 66.516 148.113 67.212 148.113 68.124V72H147.033V68.28C147.033 67.624 146.869 67.124 146.541 66.78C146.213 66.428 145.765 66.252 145.197 66.252C144.621 66.252 144.161 66.432 143.817 66.792C143.481 67.152 143.313 67.676 143.313 68.364V72H142.221V65.424H143.313V66.36C143.529 66.024 143.821 65.764 144.189 65.58C144.565 65.396 144.977 65.304 145.425 65.304Z" fill="black"/>
<path d="M61.571 86.01L59.591 93H58.811L57.051 87.04L55.251 93L54.491 93.01L52.551 86.01H53.301L54.901 92.14L56.691 86.01H57.471L59.211 92.14L60.821 86.01H61.571ZM67.5818 89.99C67.5818 90.23 67.5751 90.4133 67.5618 90.54H63.0318C63.0518 90.9533 63.1518 91.3067 63.3318 91.6C63.5118 91.8933 63.7485 92.1167 64.0418 92.27C64.3351 92.4167 64.6551 92.49 65.0018 92.49C65.4551 92.49 65.8351 92.38 66.1418 92.16C66.4551 91.94 66.6618 91.6433 66.7618 91.27H67.5018C67.3685 91.8033 67.0818 92.24 66.6418 92.58C66.2085 92.9133 65.6618 93.08 65.0018 93.08C64.4885 93.08 64.0285 92.9667 63.6218 92.74C63.2151 92.5067 62.8951 92.18 62.6618 91.76C62.4351 91.3333 62.3218 90.8367 62.3218 90.27C62.3218 89.7033 62.4351 89.2067 62.6618 88.78C62.8885 88.3533 63.2051 88.0267 63.6118 87.8C64.0185 87.5733 64.4818 87.46 65.0018 87.46C65.5218 87.46 65.9751 87.5733 66.3618 87.8C66.7551 88.0267 67.0551 88.3333 67.2618 88.72C67.4751 89.1 67.5818 89.5233 67.5818 89.99ZM66.8718 89.97C66.8785 89.5633 66.7951 89.2167 66.6218 88.93C66.4551 88.6433 66.2251 88.4267 65.9318 88.28C65.6385 88.1333 65.3185 88.06 64.9718 88.06C64.4518 88.06 64.0085 88.2267 63.6418 88.56C63.2751 88.8933 63.0718 89.3633 63.0318 89.97H66.8718ZM69.5625 85.6V93H68.8625V85.6H69.5625ZM70.8277 90.27C70.8277 89.7033 70.941 89.21 71.1677 88.79C71.3943 88.3633 71.7077 88.0367 72.1077 87.81C72.5077 87.5767 72.9643 87.46 73.4777 87.46C74.151 87.46 74.7043 87.6267 75.1377 87.96C75.5777 88.2933 75.861 88.7467 75.9877 89.32H75.2377C75.1443 88.9267 74.941 88.62 74.6277 88.4C74.321 88.1733 73.9377 88.06 73.4777 88.06C73.111 88.06 72.781 88.1433 72.4877 88.31C72.1943 88.4767 71.961 88.7267 71.7877 89.06C71.621 89.3867 71.5377 89.79 71.5377 90.27C71.5377 90.75 71.621 91.1567 71.7877 91.49C71.961 91.8233 72.1943 92.0733 72.4877 92.24C72.781 92.4067 73.111 92.49 73.4777 92.49C73.9377 92.49 74.321 92.38 74.6277 92.16C74.941 91.9333 75.1443 91.62 75.2377 91.22H75.9877C75.861 91.78 75.5777 92.23 75.1377 92.57C74.6977 92.91 74.1443 93.08 73.4777 93.08C72.9643 93.08 72.5077 92.9667 72.1077 92.74C71.7077 92.5067 71.3943 92.18 71.1677 91.76C70.941 91.3333 70.8277 90.8367 70.8277 90.27ZM79.6705 93.08C79.1571 93.08 78.6938 92.9667 78.2805 92.74C77.8738 92.5067 77.5505 92.18 77.3105 91.76C77.0771 91.3333 76.9605 90.8367 76.9605 90.27C76.9605 89.7033 77.0805 89.21 77.3205 88.79C77.5605 88.3633 77.8871 88.0367 78.3005 87.81C78.7138 87.5767 79.1771 87.46 79.6905 87.46C80.2038 87.46 80.6671 87.5767 81.0805 87.81C81.5005 88.0367 81.8271 88.3633 82.0605 88.79C82.3005 89.21 82.4205 89.7033 82.4205 90.27C82.4205 90.83 82.3005 91.3233 82.0605 91.75C81.8205 92.1767 81.4905 92.5067 81.0705 92.74C80.6505 92.9667 80.1838 93.08 79.6705 93.08ZM79.6705 92.47C80.0305 92.47 80.3638 92.39 80.6705 92.23C80.9771 92.0633 81.2238 91.8167 81.4105 91.49C81.6038 91.1567 81.7005 90.75 81.7005 90.27C81.7005 89.79 81.6071 89.3867 81.4205 89.06C81.2338 88.7267 80.9871 88.48 80.6805 88.32C80.3738 88.1533 80.0405 88.07 79.6805 88.07C79.3205 88.07 78.9871 88.1533 78.6805 88.32C78.3738 88.48 78.1271 88.7267 77.9405 89.06C77.7605 89.3867 77.6705 89.79 77.6705 90.27C77.6705 90.75 77.7605 91.1567 77.9405 91.49C78.1271 91.8167 78.3705 92.0633 78.6705 92.23C78.9771 92.39 79.3105 92.47 79.6705 92.47ZM90.1965 87.44C90.8365 87.44 91.3565 87.6433 91.7565 88.05C92.1632 88.45 92.3665 89.0333 92.3665 89.8V93H91.6765V89.88C91.6765 89.2867 91.5332 88.8333 91.2465 88.52C90.9598 88.2067 90.5698 88.05 90.0765 88.05C89.5632 88.05 89.1532 88.22 88.8465 88.56C88.5398 88.9 88.3865 89.3933 88.3865 90.04V93H87.6965V89.88C87.6965 89.2867 87.5532 88.8333 87.2665 88.52C86.9798 88.2067 86.5865 88.05 86.0865 88.05C85.5732 88.05 85.1632 88.22 84.8565 88.56C84.5498 88.9 84.3965 89.3933 84.3965 90.04V93H83.6965V87.54H84.3965V88.48C84.5698 88.14 84.8165 87.8833 85.1365 87.71C85.4565 87.53 85.8132 87.44 86.2065 87.44C86.6798 87.44 87.0932 87.5533 87.4465 87.78C87.8065 88.0067 88.0665 88.34 88.2265 88.78C88.3732 88.3467 88.6232 88.0167 88.9765 87.79C89.3365 87.5567 89.7432 87.44 90.1965 87.44ZM98.8611 89.99C98.8611 90.23 98.8544 90.4133 98.8411 90.54H94.3111C94.3311 90.9533 94.4311 91.3067 94.6111 91.6C94.7911 91.8933 95.0278 92.1167 95.3211 92.27C95.6144 92.4167 95.9344 92.49 96.2811 92.49C96.7344 92.49 97.1144 92.38 97.4211 92.16C97.7344 91.94 97.9411 91.6433 98.0411 91.27H98.7811C98.6478 91.8033 98.3611 92.24 97.9211 92.58C97.4878 92.9133 96.9411 93.08 96.2811 93.08C95.7678 93.08 95.3078 92.9667 94.9011 92.74C94.4944 92.5067 94.1744 92.18 93.9411 91.76C93.7144 91.3333 93.6011 90.8367 93.6011 90.27C93.6011 89.7033 93.7144 89.2067 93.9411 88.78C94.1678 88.3533 94.4844 88.0267 94.8911 87.8C95.2978 87.5733 95.7611 87.46 96.2811 87.46C96.8011 87.46 97.2544 87.5733 97.6411 87.8C98.0344 88.0267 98.3344 88.3333 98.5411 88.72C98.7544 89.1 98.8611 89.5233 98.8611 89.99ZM98.1511 89.97C98.1578 89.5633 98.0744 89.2167 97.9011 88.93C97.7344 88.6433 97.5044 88.4267 97.2111 88.28C96.9178 88.1333 96.5978 88.06 96.2511 88.06C95.7311 88.06 95.2878 88.2267 94.9211 88.56C94.5544 88.8933 94.3511 89.3633 94.3111 89.97H98.1511ZM103.796 88.13V91.52C103.796 91.8533 103.859 92.0833 103.986 92.21C104.113 92.3367 104.336 92.4 104.656 92.4H105.296V93H104.546C104.053 93 103.686 92.8867 103.446 92.66C103.206 92.4267 103.086 92.0467 103.086 91.52V88.13H102.326V87.54H103.086V86.17H103.796V87.54H105.296V88.13H103.796ZM108.84 93.08C108.327 93.08 107.864 92.9667 107.45 92.74C107.044 92.5067 106.72 92.18 106.48 91.76C106.247 91.3333 106.13 90.8367 106.13 90.27C106.13 89.7033 106.25 89.21 106.49 88.79C106.73 88.3633 107.057 88.0367 107.47 87.81C107.884 87.5767 108.347 87.46 108.86 87.46C109.374 87.46 109.837 87.5767 110.25 87.81C110.67 88.0367 110.997 88.3633 111.23 88.79C111.47 89.21 111.59 89.7033 111.59 90.27C111.59 90.83 111.47 91.3233 111.23 91.75C110.99 92.1767 110.66 92.5067 110.24 92.74C109.82 92.9667 109.354 93.08 108.84 93.08ZM108.84 92.47C109.2 92.47 109.534 92.39 109.84 92.23C110.147 92.0633 110.394 91.8167 110.58 91.49C110.774 91.1567 110.87 90.75 110.87 90.27C110.87 89.79 110.777 89.3867 110.59 89.06C110.404 88.7267 110.157 88.48 109.85 88.32C109.544 88.1533 109.21 88.07 108.85 88.07C108.49 88.07 108.157 88.1533 107.85 88.32C107.544 88.48 107.297 88.7267 107.11 89.06C106.93 89.3867 106.84 89.79 106.84 90.27C106.84 90.75 106.93 91.1567 107.11 91.49C107.297 91.8167 107.54 92.0633 107.84 92.23C108.147 92.39 108.48 92.47 108.84 92.47ZM118.841 86.01V91.3C118.841 91.8333 118.677 92.2633 118.351 92.59C118.024 92.91 117.587 93.07 117.041 93.07C116.474 93.07 116.021 92.9 115.681 92.56C115.347 92.2133 115.181 91.7467 115.181 91.16H115.891C115.897 91.54 115.991 91.85 116.171 92.09C116.357 92.33 116.647 92.45 117.041 92.45C117.414 92.45 117.691 92.34 117.871 92.12C118.051 91.9 118.141 91.6267 118.141 91.3V86.01H118.841ZM121.301 86.58V89.19H123.951V89.77H121.301V92.42H124.251V93H120.601V86H124.251V86.58H121.301ZM132.46 86.1V93H131.76V87.49L129.3 93H128.79L126.33 87.51V93H125.63V86.1H126.37L129.04 92.08L131.71 86.1H132.46ZM138.098 91.34H134.918L134.308 93H133.568L136.118 86.1H136.908L139.448 93H138.708L138.098 91.34ZM137.888 90.76L136.508 86.98L135.128 90.76H137.888ZM145.436 93.07C144.976 93.07 144.569 92.99 144.216 92.83C143.869 92.67 143.596 92.4467 143.396 92.16C143.196 91.8733 143.089 91.5533 143.076 91.2H143.816C143.849 91.54 143.999 91.84 144.266 92.1C144.532 92.3533 144.922 92.48 145.436 92.48C145.909 92.48 146.282 92.36 146.556 92.12C146.836 91.8733 146.976 91.5633 146.976 91.19C146.976 90.89 146.899 90.65 146.746 90.47C146.592 90.2833 146.402 90.1467 146.176 90.06C145.949 89.9667 145.636 89.8667 145.236 89.76C144.769 89.6333 144.399 89.51 144.126 89.39C143.852 89.27 143.619 89.0833 143.426 88.83C143.232 88.5767 143.136 88.2333 143.136 87.8C143.136 87.44 143.229 87.12 143.416 86.84C143.602 86.5533 143.866 86.33 144.206 86.17C144.546 86.01 144.936 85.93 145.376 85.93C146.022 85.93 146.542 86.09 146.936 86.41C147.336 86.7233 147.566 87.13 147.626 87.63H146.866C146.819 87.3433 146.662 87.09 146.396 86.87C146.129 86.6433 145.769 86.53 145.316 86.53C144.896 86.53 144.546 86.6433 144.266 86.87C143.986 87.09 143.846 87.3933 143.846 87.78C143.846 88.0733 143.922 88.31 144.076 88.49C144.229 88.67 144.419 88.8067 144.646 88.9C144.879 88.9933 145.192 89.0933 145.586 89.2C146.039 89.3267 146.406 89.4533 146.686 89.58C146.966 89.7 147.202 89.8867 147.396 90.14C147.589 90.3933 147.686 90.7333 147.686 91.16C147.686 91.4867 147.599 91.7967 147.426 92.09C147.252 92.3833 146.996 92.62 146.656 92.8C146.316 92.98 145.909 93.07 145.436 93.07ZM153.978 89.99C153.978 90.23 153.972 90.4133 153.958 90.54H149.428C149.448 90.9533 149.548 91.3067 149.728 91.6C149.908 91.8933 150.145 92.1167 150.438 92.27C150.732 92.4167 151.052 92.49 151.398 92.49C151.852 92.49 152.232 92.38 152.538 92.16C152.852 91.94 153.058 91.6433 153.158 91.27H153.898C153.765 91.8033 153.478 92.24 153.038 92.58C152.605 92.9133 152.058 93.08 151.398 93.08C150.885 93.08 150.425 92.9667 150.018 92.74C149.612 92.5067 149.292 92.18 149.058 91.76C148.832 91.3333 148.718 90.8367 148.718 90.27C148.718 89.7033 148.832 89.2067 149.058 88.78C149.285 88.3533 149.602 88.0267 150.008 87.8C150.415 87.5733 150.878 87.46 151.398 87.46C151.918 87.46 152.372 87.5733 152.758 87.8C153.152 88.0267 153.452 88.3333 153.658 88.72C153.872 89.1 153.978 89.5233 153.978 89.99ZM153.268 89.97C153.275 89.5633 153.192 89.2167 153.018 88.93C152.852 88.6433 152.622 88.4267 152.328 88.28C152.035 88.1333 151.715 88.06 151.368 88.06C150.848 88.06 150.405 88.2267 150.038 88.56C149.672 88.8933 149.468 89.3633 149.428 89.97H153.268ZM159.989 87.54V93H159.289V92.04C159.129 92.38 158.882 92.64 158.549 92.82C158.216 93 157.842 93.09 157.429 93.09C156.776 93.09 156.242 92.89 155.829 92.49C155.416 92.0833 155.209 91.4967 155.209 90.73V87.54H155.899V90.65C155.899 91.2433 156.046 91.6967 156.339 92.01C156.639 92.3233 157.046 92.48 157.559 92.48C158.086 92.48 158.506 92.3133 158.819 91.98C159.132 91.6467 159.289 91.1567 159.289 90.51V87.54H159.989ZM162.287 88.51C162.44 88.17 162.674 87.9067 162.987 87.72C163.307 87.5333 163.697 87.44 164.157 87.44V88.17H163.967C163.46 88.17 163.054 88.3067 162.747 88.58C162.44 88.8533 162.287 89.31 162.287 89.95V93H161.587V87.54H162.287V88.51ZM165.56 86.51C165.42 86.51 165.3 86.46 165.2 86.36C165.1 86.26 165.05 86.1367 165.05 85.99C165.05 85.8433 165.1 85.7233 165.2 85.63C165.3 85.53 165.42 85.48 165.56 85.48C165.7 85.48 165.82 85.53 165.92 85.63C166.02 85.7233 166.07 85.8433 166.07 85.99C166.07 86.1367 166.02 86.26 165.92 86.36C165.82 86.46 165.7 86.51 165.56 86.51ZM165.91 87.54V93H165.21V87.54H165.91ZM168.405 88.13V91.52C168.405 91.8533 168.469 92.0833 168.595 92.21C168.722 92.3367 168.945 92.4 169.265 92.4H169.905V93H169.155C168.662 93 168.295 92.8867 168.055 92.66C167.815 92.4267 167.695 92.0467 167.695 91.52V88.13H166.935V87.54H167.695V86.17H168.405V87.54H169.905V88.13H168.405ZM175.56 87.54L172.32 95.57H171.59L172.65 92.97L170.41 87.54H171.18L173.04 92.2L174.84 87.54H175.56ZM44.1466 108.07C43.6866 108.07 43.2799 107.99 42.9266 107.83C42.5799 107.67 42.3066 107.447 42.1066 107.16C41.9066 106.873 41.7999 106.553 41.7866 106.2H42.5266C42.5599 106.54 42.7099 106.84 42.9766 107.1C43.2432 107.353 43.6332 107.48 44.1466 107.48C44.6199 107.48 44.9932 107.36 45.2666 107.12C45.5466 106.873 45.6866 106.563 45.6866 106.19C45.6866 105.89 45.6099 105.65 45.4566 105.47C45.3032 105.283 45.1132 105.147 44.8866 105.06C44.6599 104.967 44.3466 104.867 43.9466 104.76C43.4799 104.633 43.1099 104.51 42.8366 104.39C42.5632 104.27 42.3299 104.083 42.1366 103.83C41.9432 103.577 41.8466 103.233 41.8466 102.8C41.8466 102.44 41.9399 102.12 42.1266 101.84C42.3132 101.553 42.5766 101.33 42.9166 101.17C43.2566 101.01 43.6466 100.93 44.0866 100.93C44.7332 100.93 45.2532 101.09 45.6466 101.41C46.0466 101.723 46.2766 102.13 46.3366 102.63H45.5766C45.5299 102.343 45.3732 102.09 45.1066 101.87C44.8399 101.643 44.4799 101.53 44.0266 101.53C43.6066 101.53 43.2566 101.643 42.9766 101.87C42.6966 102.09 42.5566 102.393 42.5566 102.78C42.5566 103.073 42.6332 103.31 42.7866 103.49C42.9399 103.67 43.1299 103.807 43.3566 103.9C43.5899 103.993 43.9032 104.093 44.2966 104.2C44.7499 104.327 45.1166 104.453 45.3966 104.58C45.6766 104.7 45.9132 104.887 46.1066 105.14C46.2999 105.393 46.3966 105.733 46.3966 106.16C46.3966 106.487 46.3099 106.797 46.1366 107.09C45.9632 107.383 45.7066 107.62 45.3666 107.8C45.0266 107.98 44.6199 108.07 44.1466 108.07ZM52.6892 104.99C52.6892 105.23 52.6826 105.413 52.6692 105.54H48.1392C48.1592 105.953 48.2592 106.307 48.4392 106.6C48.6192 106.893 48.8559 107.117 49.1492 107.27C49.4426 107.417 49.7626 107.49 50.1092 107.49C50.5626 107.49 50.9426 107.38 51.2492 107.16C51.5626 106.94 51.7692 106.643 51.8692 106.27H52.6092C52.4759 106.803 52.1892 107.24 51.7492 107.58C51.3159 107.913 50.7692 108.08 50.1092 108.08C49.5959 108.08 49.1359 107.967 48.7292 107.74C48.3226 107.507 48.0026 107.18 47.7692 106.76C47.5426 106.333 47.4292 105.837 47.4292 105.27C47.4292 104.703 47.5426 104.207 47.7692 103.78C47.9959 103.353 48.3126 103.027 48.7192 102.8C49.1259 102.573 49.5892 102.46 50.1092 102.46C50.6292 102.46 51.0826 102.573 51.4692 102.8C51.8626 103.027 52.1626 103.333 52.3692 103.72C52.5826 104.1 52.6892 104.523 52.6892 104.99ZM51.9792 104.97C51.9859 104.563 51.9026 104.217 51.7292 103.93C51.5626 103.643 51.3326 103.427 51.0392 103.28C50.7459 103.133 50.4259 103.06 50.0792 103.06C49.5592 103.06 49.1159 103.227 48.7492 103.56C48.3826 103.893 48.1792 104.363 48.1392 104.97H51.9792ZM54.6699 103.51C54.8233 103.17 55.0566 102.907 55.3699 102.72C55.6899 102.533 56.0799 102.44 56.5399 102.44V103.17H56.3499C55.8433 103.17 55.4366 103.307 55.1299 103.58C54.8233 103.853 54.6699 104.31 54.6699 104.95V108H53.9699V102.54H54.6699V103.51ZM59.533 107.32L61.373 102.54H62.113L59.923 108H59.133L56.943 102.54H57.693L59.533 107.32ZM63.4117 101.51C63.2717 101.51 63.1517 101.46 63.0517 101.36C62.9517 101.26 62.9017 101.137 62.9017 100.99C62.9017 100.843 62.9517 100.723 63.0517 100.63C63.1517 100.53 63.2717 100.48 63.4117 100.48C63.5517 100.48 63.6717 100.53 63.7717 100.63C63.8717 100.723 63.9217 100.843 63.9217 100.99C63.9217 101.137 63.8717 101.26 63.7717 101.36C63.6717 101.46 63.5517 101.51 63.4117 101.51ZM63.7617 102.54V108H63.0617V102.54H63.7617ZM65.0269 105.27C65.0269 104.703 65.1402 104.21 65.3669 103.79C65.5935 103.363 65.9069 103.037 66.3069 102.81C66.7069 102.577 67.1635 102.46 67.6769 102.46C68.3502 102.46 68.9035 102.627 69.3369 102.96C69.7769 103.293 70.0602 103.747 70.1869 104.32H69.4369C69.3435 103.927 69.1402 103.62 68.8269 103.4C68.5202 103.173 68.1369 103.06 67.6769 103.06C67.3102 103.06 66.9802 103.143 66.6869 103.31C66.3935 103.477 66.1602 103.727 65.9869 104.06C65.8202 104.387 65.7369 104.79 65.7369 105.27C65.7369 105.75 65.8202 106.157 65.9869 106.49C66.1602 106.823 66.3935 107.073 66.6869 107.24C66.9802 107.407 67.3102 107.49 67.6769 107.49C68.1369 107.49 68.5202 107.38 68.8269 107.16C69.1402 106.933 69.3435 106.62 69.4369 106.22H70.1869C70.0602 106.78 69.7769 107.23 69.3369 107.57C68.8969 107.91 68.3435 108.08 67.6769 108.08C67.1635 108.08 66.7069 107.967 66.3069 107.74C65.9069 107.507 65.5935 107.18 65.3669 106.76C65.1402 106.333 65.0269 105.837 65.0269 105.27ZM76.4197 104.99C76.4197 105.23 76.413 105.413 76.3997 105.54H71.8697C71.8897 105.953 71.9897 106.307 72.1697 106.6C72.3497 106.893 72.5864 107.117 72.8797 107.27C73.173 107.417 73.493 107.49 73.8397 107.49C74.293 107.49 74.673 107.38 74.9797 107.16C75.293 106.94 75.4997 106.643 75.5997 106.27H76.3397C76.2064 106.803 75.9197 107.24 75.4797 107.58C75.0464 107.913 74.4997 108.08 73.8397 108.08C73.3264 108.08 72.8664 107.967 72.4597 107.74C72.053 107.507 71.733 107.18 71.4997 106.76C71.273 106.333 71.1597 105.837 71.1597 105.27C71.1597 104.703 71.273 104.207 71.4997 103.78C71.7264 103.353 72.043 103.027 72.4497 102.8C72.8564 102.573 73.3197 102.46 73.8397 102.46C74.3597 102.46 74.813 102.573 75.1997 102.8C75.593 103.027 75.893 103.333 76.0997 103.72C76.313 104.1 76.4197 104.523 76.4197 104.99ZM75.7097 104.97C75.7164 104.563 75.633 104.217 75.4597 103.93C75.293 103.643 75.063 103.427 74.7697 103.28C74.4764 103.133 74.1564 103.06 73.8097 103.06C73.2897 103.06 72.8464 103.227 72.4797 103.56C72.113 103.893 71.9097 104.363 71.8697 104.97H75.7097ZM81.1445 107.43H83.6545V108H80.4445V101.01H81.1445V107.43ZM88.7435 101.01V101.59H86.8035V108H86.1035V101.59H84.1535V101.01H88.7435ZM91.9188 101.01C92.6922 101.01 93.3555 101.15 93.9088 101.43C94.4622 101.71 94.8855 102.113 95.1788 102.64C95.4722 103.167 95.6188 103.793 95.6188 104.52C95.6188 105.24 95.4722 105.863 95.1788 106.39C94.8855 106.91 94.4622 107.31 93.9088 107.59C93.3555 107.863 92.6922 108 91.9188 108H89.8488V101.01H91.9188ZM91.9188 107.42C92.8922 107.42 93.6322 107.167 94.1388 106.66C94.6522 106.147 94.9088 105.433 94.9088 104.52C94.9088 103.6 94.6522 102.883 94.1388 102.37C93.6322 101.85 92.8922 101.59 91.9188 101.59H90.5488V107.42H91.9188ZM97.5494 106.84L96.5094 109.46H96.0294L96.7694 106.84H97.5494ZM108.582 102.54L106.872 108H106.172L104.662 103.42L103.152 108H102.442L100.732 102.54H101.442L102.802 107.29L104.332 102.54H105.032L106.542 107.3L107.892 102.54H108.582ZM112.136 102.44C112.55 102.44 112.92 102.527 113.246 102.7C113.58 102.873 113.84 103.14 114.026 103.5C114.22 103.853 114.316 104.287 114.316 104.8V108H113.626V104.88C113.626 104.287 113.476 103.833 113.176 103.52C112.883 103.207 112.48 103.05 111.966 103.05C111.44 103.05 111.02 103.217 110.706 103.55C110.393 103.883 110.236 104.373 110.236 105.02V108H109.536V100.6H110.236V103.47C110.41 103.143 110.663 102.89 110.996 102.71C111.336 102.53 111.716 102.44 112.136 102.44ZM120.804 104.99C120.804 105.23 120.798 105.413 120.784 105.54H116.254C116.274 105.953 116.374 106.307 116.554 106.6C116.734 106.893 116.971 107.117 117.264 107.27C117.558 107.417 117.878 107.49 118.224 107.49C118.678 107.49 119.058 107.38 119.364 107.16C119.678 106.94 119.884 106.643 119.984 106.27H120.724C120.591 106.803 120.304 107.24 119.864 107.58C119.431 107.913 118.884 108.08 118.224 108.08C117.711 108.08 117.251 107.967 116.844 107.74C116.438 107.507 116.118 107.18 115.884 106.76C115.658 106.333 115.544 105.837 115.544 105.27C115.544 104.703 115.658 104.207 115.884 103.78C116.111 103.353 116.428 103.027 116.834 102.8C117.241 102.573 117.704 102.46 118.224 102.46C118.744 102.46 119.198 102.573 119.584 102.8C119.978 103.027 120.278 103.333 120.484 103.72C120.698 104.1 120.804 104.523 120.804 104.99ZM120.094 104.97C120.101 104.563 120.018 104.217 119.844 103.93C119.678 103.643 119.448 103.427 119.154 103.28C118.861 103.133 118.541 103.06 118.194 103.06C117.674 103.06 117.231 103.227 116.864 103.56C116.498 103.893 116.294 104.363 116.254 104.97H120.094ZM122.785 103.51C122.938 103.17 123.172 102.907 123.485 102.72C123.805 102.533 124.195 102.44 124.655 102.44V103.17H124.465C123.958 103.17 123.552 103.307 123.245 103.58C122.938 103.853 122.785 104.31 122.785 104.95V108H122.085V102.54H122.785V103.51ZM130.648 104.99C130.648 105.23 130.642 105.413 130.628 105.54H126.098C126.118 105.953 126.218 106.307 126.398 106.6C126.578 106.893 126.815 107.117 127.108 107.27C127.402 107.417 127.722 107.49 128.068 107.49C128.522 107.49 128.902 107.38 129.208 107.16C129.522 106.94 129.728 106.643 129.828 106.27H130.568C130.435 106.803 130.148 107.24 129.708 107.58C129.275 107.913 128.728 108.08 128.068 108.08C127.555 108.08 127.095 107.967 126.688 107.74C126.282 107.507 125.962 107.18 125.728 106.76C125.502 106.333 125.388 105.837 125.388 105.27C125.388 104.703 125.502 104.207 125.728 103.78C125.955 103.353 126.272 103.027 126.678 102.8C127.085 102.573 127.548 102.46 128.068 102.46C128.588 102.46 129.042 102.573 129.428 102.8C129.822 103.027 130.122 103.333 130.328 103.72C130.542 104.1 130.648 104.523 130.648 104.99ZM129.938 104.97C129.945 104.563 129.862 104.217 129.688 103.93C129.522 103.643 129.292 103.427 128.998 103.28C128.705 103.133 128.385 103.06 128.038 103.06C127.518 103.06 127.075 103.227 126.708 103.56C126.342 103.893 126.138 104.363 126.098 104.97H129.938ZM136.553 108.08C135.926 108.08 135.413 107.937 135.013 107.65C134.62 107.357 134.4 106.96 134.353 106.46H135.073C135.106 106.767 135.25 107.017 135.503 107.21C135.763 107.397 136.11 107.49 136.543 107.49C136.923 107.49 137.22 107.4 137.433 107.22C137.653 107.04 137.763 106.817 137.763 106.55C137.763 106.363 137.703 106.21 137.583 106.09C137.463 105.97 137.31 105.877 137.123 105.81C136.943 105.737 136.696 105.66 136.383 105.58C135.976 105.473 135.646 105.367 135.393 105.26C135.14 105.153 134.923 104.997 134.743 104.79C134.57 104.577 134.483 104.293 134.483 103.94C134.483 103.673 134.563 103.427 134.723 103.2C134.883 102.973 135.11 102.793 135.403 102.66C135.696 102.527 136.03 102.46 136.403 102.46C136.99 102.46 137.463 102.61 137.823 102.91C138.183 103.203 138.376 103.61 138.403 104.13H137.703C137.683 103.81 137.556 103.553 137.323 103.36C137.096 103.16 136.783 103.06 136.383 103.06C136.03 103.06 135.743 103.143 135.523 103.31C135.303 103.477 135.193 103.683 135.193 103.93C135.193 104.143 135.256 104.32 135.383 104.46C135.516 104.593 135.68 104.7 135.873 104.78C136.066 104.853 136.326 104.937 136.653 105.03C137.046 105.137 137.36 105.24 137.593 105.34C137.826 105.44 138.026 105.587 138.193 105.78C138.36 105.973 138.446 106.23 138.453 106.55C138.453 106.843 138.373 107.107 138.213 107.34C138.053 107.567 137.83 107.747 137.543 107.88C137.256 108.013 136.926 108.08 136.553 108.08ZM139.451 105.26C139.451 104.7 139.561 104.21 139.781 103.79C140.007 103.363 140.317 103.037 140.711 102.81C141.111 102.577 141.561 102.46 142.061 102.46C142.581 102.46 143.027 102.58 143.401 102.82C143.781 103.06 144.054 103.367 144.221 103.74V102.54H144.921V108H144.221V106.79C144.047 107.163 143.771 107.473 143.391 107.72C143.017 107.96 142.571 108.08 142.051 108.08C141.557 108.08 141.111 107.963 140.711 107.73C140.317 107.497 140.007 107.167 139.781 106.74C139.561 106.313 139.451 105.82 139.451 105.26ZM144.221 105.27C144.221 104.83 144.131 104.443 143.951 104.11C143.771 103.777 143.524 103.52 143.211 103.34C142.904 103.16 142.564 103.07 142.191 103.07C141.804 103.07 141.457 103.157 141.151 103.33C140.844 103.503 140.601 103.757 140.421 104.09C140.247 104.417 140.161 104.807 140.161 105.26C140.161 105.707 140.247 106.1 140.421 106.44C140.601 106.773 140.844 107.03 141.151 107.21C141.457 107.383 141.804 107.47 142.191 107.47C142.564 107.47 142.904 107.38 143.211 107.2C143.524 107.02 143.771 106.763 143.951 106.43C144.131 106.097 144.221 105.71 144.221 105.27ZM148.669 103.13H147.399V108H146.699V103.13H145.939V102.54H146.699V102.16C146.699 101.567 146.849 101.13 147.149 100.85C147.455 100.57 147.949 100.43 148.629 100.43V101.03C148.175 101.03 147.855 101.117 147.669 101.29C147.489 101.463 147.399 101.753 147.399 102.16V102.54H148.669V103.13ZM154.711 104.99C154.711 105.23 154.704 105.413 154.691 105.54H150.161C150.181 105.953 150.281 106.307 150.461 106.6C150.641 106.893 150.877 107.117 151.171 107.27C151.464 107.417 151.784 107.49 152.131 107.49C152.584 107.49 152.964 107.38 153.271 107.16C153.584 106.94 153.791 106.643 153.891 106.27H154.631C154.497 106.803 154.211 107.24 153.771 107.58C153.337 107.913 152.791 108.08 152.131 108.08C151.617 108.08 151.157 107.967 150.751 107.74C150.344 107.507 150.024 107.18 149.791 106.76C149.564 106.333 149.451 105.837 149.451 105.27C149.451 104.703 149.564 104.207 149.791 103.78C150.017 103.353 150.334 103.027 150.741 102.8C151.147 102.573 151.611 102.46 152.131 102.46C152.651 102.46 153.104 102.573 153.491 102.8C153.884 103.027 154.184 103.333 154.391 103.72C154.604 104.1 154.711 104.523 154.711 104.99ZM154.001 104.97C154.007 104.563 153.924 104.217 153.751 103.93C153.584 103.643 153.354 103.427 153.061 103.28C152.767 103.133 152.447 103.06 152.101 103.06C151.581 103.06 151.137 103.227 150.771 103.56C150.404 103.893 150.201 104.363 150.161 104.97H154.001ZM156.901 103.13V106.52C156.901 106.853 156.965 107.083 157.091 107.21C157.218 107.337 157.441 107.4 157.761 107.4H158.401V108H157.651C157.158 108 156.791 107.887 156.551 107.66C156.311 107.427 156.191 107.047 156.191 106.52V103.13H155.431V102.54H156.191V101.17H156.901V102.54H158.401V103.13H156.901ZM164.056 102.54L160.816 110.57H160.086L161.146 107.97L158.906 102.54H159.676L161.536 107.2L163.336 102.54H164.056ZM167.429 105.26C167.429 104.7 167.539 104.21 167.759 103.79C167.986 103.363 168.296 103.037 168.689 102.81C169.089 102.577 169.539 102.46 170.039 102.46C170.559 102.46 171.006 102.58 171.379 102.82C171.759 103.06 172.033 103.367 172.199 103.74V102.54H172.899V108H172.199V106.79C172.026 107.163 171.749 107.473 171.369 107.72C170.996 107.96 170.549 108.08 170.029 108.08C169.536 108.08 169.089 107.963 168.689 107.73C168.296 107.497 167.986 107.167 167.759 106.74C167.539 106.313 167.429 105.82 167.429 105.26ZM172.199 105.27C172.199 104.83 172.109 104.443 171.929 104.11C171.749 103.777 171.503 103.52 171.189 103.34C170.883 103.16 170.543 103.07 170.169 103.07C169.783 103.07 169.436 103.157 169.129 103.33C168.823 103.503 168.579 103.757 168.399 104.09C168.226 104.417 168.139 104.807 168.139 105.26C168.139 105.707 168.226 106.1 168.399 106.44C168.579 106.773 168.823 107.03 169.129 107.21C169.436 107.383 169.783 107.47 170.169 107.47C170.543 107.47 170.883 107.38 171.189 107.2C171.503 107.02 171.749 106.763 171.929 106.43C172.109 106.097 172.199 105.71 172.199 105.27ZM177.057 102.44C177.711 102.44 178.244 102.643 178.657 103.05C179.071 103.45 179.277 104.033 179.277 104.8V108H178.587V104.88C178.587 104.287 178.437 103.833 178.137 103.52C177.844 103.207 177.441 103.05 176.927 103.05C176.401 103.05 175.981 103.217 175.667 103.55C175.354 103.883 175.197 104.373 175.197 105.02V108H174.497V102.54H175.197V103.47C175.371 103.137 175.621 102.883 175.947 102.71C176.274 102.53 176.644 102.44 177.057 102.44ZM180.505 105.26C180.505 104.7 180.619 104.21 180.845 103.79C181.072 103.363 181.382 103.037 181.775 102.81C182.175 102.577 182.625 102.46 183.125 102.46C183.605 102.46 184.039 102.577 184.425 102.81C184.812 103.043 185.095 103.347 185.275 103.72V100.6H185.975V108H185.275V106.78C185.109 107.16 184.835 107.473 184.455 107.72C184.075 107.96 183.629 108.08 183.115 108.08C182.615 108.08 182.165 107.963 181.765 107.73C181.372 107.497 181.062 107.167 180.835 106.74C180.615 106.313 180.505 105.82 180.505 105.26ZM185.275 105.27C185.275 104.83 185.185 104.443 185.005 104.11C184.825 103.777 184.579 103.52 184.265 103.34C183.959 103.16 183.619 103.07 183.245 103.07C182.859 103.07 182.512 103.157 182.205 103.33C181.899 103.503 181.655 103.757 181.475 104.09C181.302 104.417 181.215 104.807 181.215 105.26C181.215 105.707 181.302 106.1 181.475 106.44C181.655 106.773 181.899 107.03 182.205 107.21C182.512 107.383 182.859 107.47 183.245 107.47C183.619 107.47 183.959 107.38 184.265 107.2C184.579 107.02 184.825 106.763 185.005 106.43C185.185 106.097 185.275 105.71 185.275 105.27ZM45.015 123.08C44.3883 123.08 43.875 122.937 43.475 122.65C43.0816 122.357 42.8616 121.96 42.815 121.46H43.535C43.5683 121.767 43.7116 122.017 43.965 122.21C44.225 122.397 44.5716 122.49 45.005 122.49C45.385 122.49 45.6816 122.4 45.895 122.22C46.115 122.04 46.225 121.817 46.225 121.55C46.225 121.363 46.165 121.21 46.045 121.09C45.925 120.97 45.7716 120.877 45.585 120.81C45.405 120.737 45.1583 120.66 44.845 120.58C44.4383 120.473 44.1083 120.367 43.855 120.26C43.6016 120.153 43.385 119.997 43.205 119.79C43.0316 119.577 42.945 119.293 42.945 118.94C42.945 118.673 43.025 118.427 43.185 118.2C43.345 117.973 43.5716 117.793 43.865 117.66C44.1583 117.527 44.4916 117.46 44.865 117.46C45.4516 117.46 45.925 117.61 46.285 117.91C46.645 118.203 46.8383 118.61 46.865 119.13H46.165C46.145 118.81 46.0183 118.553 45.785 118.36C45.5583 118.16 45.245 118.06 44.845 118.06C44.4916 118.06 44.205 118.143 43.985 118.31C43.765 118.477 43.655 118.683 43.655 118.93C43.655 119.143 43.7183 119.32 43.845 119.46C43.9783 119.593 44.1416 119.7 44.335 119.78C44.5283 119.853 44.7883 119.937 45.115 120.03C45.5083 120.137 45.8216 120.24 46.055 120.34C46.2883 120.44 46.4883 120.587 46.655 120.78C46.8216 120.973 46.9083 121.23 46.915 121.55C46.915 121.843 46.835 122.107 46.675 122.34C46.515 122.567 46.2916 122.747 46.005 122.88C45.7183 123.013 45.3883 123.08 45.015 123.08ZM53.1726 119.99C53.1726 120.23 53.166 120.413 53.1526 120.54H48.6226C48.6426 120.953 48.7426 121.307 48.9226 121.6C49.1026 121.893 49.3393 122.117 49.6326 122.27C49.926 122.417 50.246 122.49 50.5926 122.49C51.046 122.49 51.426 122.38 51.7326 122.16C52.046 121.94 52.2526 121.643 52.3526 121.27H53.0926C52.9593 121.803 52.6726 122.24 52.2326 122.58C51.7993 122.913 51.2526 123.08 50.5926 123.08C50.0793 123.08 49.6193 122.967 49.2126 122.74C48.806 122.507 48.486 122.18 48.2526 121.76C48.026 121.333 47.9126 120.837 47.9126 120.27C47.9126 119.703 48.026 119.207 48.2526 118.78C48.4793 118.353 48.796 118.027 49.2026 117.8C49.6093 117.573 50.0726 117.46 50.5926 117.46C51.1126 117.46 51.566 117.573 51.9526 117.8C52.346 118.027 52.646 118.333 52.8526 118.72C53.066 119.1 53.1726 119.523 53.1726 119.99ZM52.4626 119.97C52.4693 119.563 52.386 119.217 52.2126 118.93C52.046 118.643 51.816 118.427 51.5226 118.28C51.2293 118.133 50.9093 118.06 50.5626 118.06C50.0426 118.06 49.5993 118.227 49.2326 118.56C48.866 118.893 48.6626 119.363 48.6226 119.97H52.4626ZM54.1333 120.27C54.1333 119.703 54.2467 119.21 54.4733 118.79C54.7 118.363 55.0133 118.037 55.4133 117.81C55.8133 117.577 56.27 117.46 56.7833 117.46C57.4567 117.46 58.01 117.627 58.4433 117.96C58.8833 118.293 59.1667 118.747 59.2933 119.32H58.5433C58.45 118.927 58.2467 118.62 57.9333 118.4C57.6267 118.173 57.2433 118.06 56.7833 118.06C56.4167 118.06 56.0867 118.143 55.7933 118.31C55.5 118.477 55.2667 118.727 55.0933 119.06C54.9267 119.387 54.8433 119.79 54.8433 120.27C54.8433 120.75 54.9267 121.157 55.0933 121.49C55.2667 121.823 55.5 122.073 55.7933 122.24C56.0867 122.407 56.4167 122.49 56.7833 122.49C57.2433 122.49 57.6267 122.38 57.9333 122.16C58.2467 121.933 58.45 121.62 58.5433 121.22H59.2933C59.1667 121.78 58.8833 122.23 58.4433 122.57C58.0033 122.91 57.45 123.08 56.7833 123.08C56.27 123.08 55.8133 122.967 55.4133 122.74C55.0133 122.507 54.7 122.18 54.4733 121.76C54.2467 121.333 54.1333 120.837 54.1333 120.27ZM65.3161 117.54V123H64.6161V122.04C64.4561 122.38 64.2095 122.64 63.8761 122.82C63.5428 123 63.1695 123.09 62.7561 123.09C62.1028 123.09 61.5695 122.89 61.1561 122.49C60.7428 122.083 60.5361 121.497 60.5361 120.73V117.54H61.2261V120.65C61.2261 121.243 61.3728 121.697 61.6661 122.01C61.9661 122.323 62.3728 122.48 62.8861 122.48C63.4128 122.48 63.8328 122.313 64.1461 121.98C64.4595 121.647 64.6161 121.157 64.6161 120.51V117.54H65.3161ZM67.6143 118.51C67.7676 118.17 68.0009 117.907 68.3143 117.72C68.6343 117.533 69.0243 117.44 69.4843 117.44V118.17H69.2943C68.7876 118.17 68.3809 118.307 68.0743 118.58C67.7676 118.853 67.6143 119.31 67.6143 119.95V123H66.9143V117.54H67.6143V118.51ZM70.8873 116.51C70.7473 116.51 70.6273 116.46 70.5273 116.36C70.4273 116.26 70.3773 116.137 70.3773 115.99C70.3773 115.843 70.4273 115.723 70.5273 115.63C70.6273 115.53 70.7473 115.48 70.8873 115.48C71.0273 115.48 71.1473 115.53 71.2473 115.63C71.3473 115.723 71.3973 115.843 71.3973 115.99C71.3973 116.137 71.3473 116.26 71.2473 116.36C71.1473 116.46 71.0273 116.51 70.8873 116.51ZM71.2373 117.54V123H70.5373V117.54H71.2373ZM73.7325 118.13V121.52C73.7325 121.853 73.7958 122.083 73.9225 122.21C74.0491 122.337 74.2725 122.4 74.5925 122.4H75.2325V123H74.4825C73.9891 123 73.6225 122.887 73.3825 122.66C73.1425 122.427 73.0225 122.047 73.0225 121.52V118.13H72.2625V117.54H73.0225V116.17H73.7325V117.54H75.2325V118.13H73.7325ZM80.8869 117.54L77.6469 125.57H76.9169L77.9769 122.97L75.7369 117.54H76.5069L78.3669 122.2L80.1669 117.54H80.8869ZM84.2603 120.26C84.2603 119.7 84.3703 119.21 84.5903 118.79C84.8169 118.363 85.1269 118.037 85.5203 117.81C85.9203 117.577 86.3703 117.46 86.8703 117.46C87.3903 117.46 87.8369 117.58 88.2103 117.82C88.5903 118.06 88.8636 118.367 89.0303 118.74V117.54H89.7303V123H89.0303V121.79C88.8569 122.163 88.5803 122.473 88.2003 122.72C87.8269 122.96 87.3803 123.08 86.8603 123.08C86.3669 123.08 85.9203 122.963 85.5203 122.73C85.1269 122.497 84.8169 122.167 84.5903 121.74C84.3703 121.313 84.2603 120.82 84.2603 120.26ZM89.0303 120.27C89.0303 119.83 88.9403 119.443 88.7603 119.11C88.5803 118.777 88.3336 118.52 88.0203 118.34C87.7136 118.16 87.3736 118.07 87.0003 118.07C86.6136 118.07 86.2669 118.157 85.9603 118.33C85.6536 118.503 85.4103 118.757 85.2303 119.09C85.0569 119.417 84.9703 119.807 84.9703 120.26C84.9703 120.707 85.0569 121.1 85.2303 121.44C85.4103 121.773 85.6536 122.03 85.9603 122.21C86.2669 122.383 86.6136 122.47 87.0003 122.47C87.3736 122.47 87.7136 122.38 88.0203 122.2C88.3336 122.02 88.5803 121.763 88.7603 121.43C88.9403 121.097 89.0303 120.71 89.0303 120.27ZM92.0283 118.51C92.1817 118.17 92.415 117.907 92.7283 117.72C93.0483 117.533 93.4383 117.44 93.8983 117.44V118.17H93.7083C93.2017 118.17 92.795 118.307 92.4883 118.58C92.1817 118.853 92.0283 119.31 92.0283 119.95V123H91.3283V117.54H92.0283V118.51ZM99.8914 119.99C99.8914 120.23 99.8847 120.413 99.8714 120.54H95.3414C95.3614 120.953 95.4614 121.307 95.6414 121.6C95.8214 121.893 96.058 122.117 96.3514 122.27C96.6447 122.417 96.9647 122.49 97.3114 122.49C97.7647 122.49 98.1447 122.38 98.4514 122.16C98.7647 121.94 98.9714 121.643 99.0714 121.27H99.8114C99.678 121.803 99.3914 122.24 98.9514 122.58C98.518 122.913 97.9714 123.08 97.3114 123.08C96.798 123.08 96.338 122.967 95.9314 122.74C95.5247 122.507 95.2047 122.18 94.9714 121.76C94.7447 121.333 94.6314 120.837 94.6314 120.27C94.6314 119.703 94.7447 119.207 94.9714 118.78C95.198 118.353 95.5147 118.027 95.9214 117.8C96.328 117.573 96.7914 117.46 97.3114 117.46C97.8314 117.46 98.2847 117.573 98.6714 117.8C99.0647 118.027 99.3647 118.333 99.5714 118.72C99.7847 119.1 99.8914 119.523 99.8914 119.99ZM99.1814 119.97C99.188 119.563 99.1047 119.217 98.9314 118.93C98.7647 118.643 98.5347 118.427 98.2414 118.28C97.948 118.133 97.628 118.06 97.2814 118.06C96.7614 118.06 96.318 118.227 95.9514 118.56C95.5847 118.893 95.3814 119.363 95.3414 119.97H99.1814ZM106.306 123.08C105.793 123.08 105.33 122.967 104.916 122.74C104.51 122.507 104.186 122.18 103.946 121.76C103.713 121.333 103.596 120.837 103.596 120.27C103.596 119.703 103.716 119.21 103.956 118.79C104.196 118.363 104.523 118.037 104.936 117.81C105.35 117.577 105.813 117.46 106.326 117.46C106.84 117.46 107.303 117.577 107.716 117.81C108.136 118.037 108.463 118.363 108.696 118.79C108.936 119.21 109.056 119.703 109.056 120.27C109.056 120.83 108.936 121.323 108.696 121.75C108.456 122.177 108.126 122.507 107.706 122.74C107.286 122.967 106.82 123.08 106.306 123.08ZM106.306 122.47C106.666 122.47 107 122.39 107.306 122.23C107.613 122.063 107.86 121.817 108.046 121.49C108.24 121.157 108.336 120.75 108.336 120.27C108.336 119.79 108.243 119.387 108.056 119.06C107.87 118.727 107.623 118.48 107.316 118.32C107.01 118.153 106.676 118.07 106.316 118.07C105.956 118.07 105.623 118.153 105.316 118.32C105.01 118.48 104.763 118.727 104.576 119.06C104.396 119.387 104.306 119.79 104.306 120.27C104.306 120.75 104.396 121.157 104.576 121.49C104.763 121.817 105.006 122.063 105.306 122.23C105.613 122.39 105.946 122.47 106.306 122.47ZM115.062 117.54V123H114.362V122.04C114.202 122.38 113.956 122.64 113.622 122.82C113.289 123 112.916 123.09 112.502 123.09C111.849 123.09 111.316 122.89 110.902 122.49C110.489 122.083 110.282 121.497 110.282 120.73V117.54H110.972V120.65C110.972 121.243 111.119 121.697 111.412 122.01C111.712 122.323 112.119 122.48 112.632 122.48C113.159 122.48 113.579 122.313 113.892 121.98C114.206 121.647 114.362 121.157 114.362 120.51V117.54H115.062ZM117.36 118.51C117.514 118.17 117.747 117.907 118.06 117.72C118.38 117.533 118.77 117.44 119.23 117.44V118.17H119.04C118.534 118.17 118.127 118.307 117.82 118.58C117.514 118.853 117.36 119.31 117.36 119.95V123H116.66V117.54H117.36V118.51ZM123.938 118.13V121.52C123.938 121.853 124.001 122.083 124.128 122.21C124.254 122.337 124.478 122.4 124.798 122.4H125.438V123H124.688C124.194 123 123.828 122.887 123.588 122.66C123.348 122.427 123.228 122.047 123.228 121.52V118.13H122.468V117.54H123.228V116.17H123.938V117.54H125.438V118.13H123.938ZM128.982 123.08C128.469 123.08 128.005 122.967 127.592 122.74C127.185 122.507 126.862 122.18 126.622 121.76C126.389 121.333 126.272 120.837 126.272 120.27C126.272 119.703 126.392 119.21 126.632 118.79C126.872 118.363 127.199 118.037 127.612 117.81C128.025 117.577 128.489 117.46 129.002 117.46C129.515 117.46 129.979 117.577 130.392 117.81C130.812 118.037 131.139 118.363 131.372 118.79C131.612 119.21 131.732 119.703 131.732 120.27C131.732 120.83 131.612 121.323 131.372 121.75C131.132 122.177 130.802 122.507 130.382 122.74C129.962 122.967 129.495 123.08 128.982 123.08ZM128.982 122.47C129.342 122.47 129.675 122.39 129.982 122.23C130.289 122.063 130.535 121.817 130.722 121.49C130.915 121.157 131.012 120.75 131.012 120.27C131.012 119.79 130.919 119.387 130.732 119.06C130.545 118.727 130.299 118.48 129.992 118.32C129.685 118.153 129.352 118.07 128.992 118.07C128.632 118.07 128.299 118.153 127.992 118.32C127.685 118.48 127.439 118.727 127.252 119.06C127.072 119.387 126.982 119.79 126.982 120.27C126.982 120.75 127.072 121.157 127.252 121.49C127.439 121.817 127.682 122.063 127.982 122.23C128.289 122.39 128.622 122.47 128.982 122.47ZM133.698 118.74C133.871 118.373 134.145 118.07 134.518 117.83C134.898 117.583 135.348 117.46 135.868 117.46C136.361 117.46 136.805 117.577 137.198 117.81C137.598 118.037 137.908 118.363 138.128 118.79C138.355 119.21 138.468 119.7 138.468 120.26C138.468 120.82 138.355 121.313 138.128 121.74C137.908 122.167 137.598 122.497 137.198 122.73C136.805 122.963 136.361 123.08 135.868 123.08C135.355 123.08 134.908 122.96 134.528 122.72C134.148 122.473 133.871 122.167 133.698 121.8V125.58H133.008V117.54H133.698V118.74ZM137.758 120.26C137.758 119.807 137.668 119.417 137.488 119.09C137.315 118.757 137.075 118.503 136.768 118.33C136.461 118.157 136.115 118.07 135.728 118.07C135.355 118.07 135.011 118.16 134.698 118.34C134.391 118.52 134.148 118.777 133.968 119.11C133.788 119.443 133.698 119.83 133.698 120.27C133.698 120.71 133.788 121.097 133.968 121.43C134.148 121.763 134.391 122.02 134.698 122.2C135.011 122.38 135.355 122.47 135.728 122.47C136.115 122.47 136.461 122.383 136.768 122.21C137.075 122.03 137.315 121.773 137.488 121.44C137.668 121.1 137.758 120.707 137.758 120.26ZM143.19 118.74C143.364 118.373 143.637 118.07 144.01 117.83C144.39 117.583 144.84 117.46 145.36 117.46C145.854 117.46 146.297 117.577 146.69 117.81C147.09 118.037 147.4 118.363 147.62 118.79C147.847 119.21 147.96 119.7 147.96 120.26C147.96 120.82 147.847 121.313 147.62 121.74C147.4 122.167 147.09 122.497 146.69 122.73C146.297 122.963 145.854 123.08 145.36 123.08C144.847 123.08 144.4 122.96 144.02 122.72C143.64 122.473 143.364 122.167 143.19 121.8V125.58H142.5V117.54H143.19V118.74ZM147.25 120.26C147.25 119.807 147.16 119.417 146.98 119.09C146.807 118.757 146.567 118.503 146.26 118.33C145.954 118.157 145.607 118.07 145.22 118.07C144.847 118.07 144.504 118.16 144.19 118.34C143.884 118.52 143.64 118.777 143.46 119.11C143.28 119.443 143.19 119.83 143.19 120.27C143.19 120.71 143.28 121.097 143.46 121.43C143.64 121.763 143.884 122.02 144.19 122.2C144.504 122.38 144.847 122.47 145.22 122.47C145.607 122.47 145.954 122.383 146.26 122.21C146.567 122.03 146.807 121.773 146.98 121.44C147.16 121.1 147.25 120.707 147.25 120.26ZM149.948 118.51C150.102 118.17 150.335 117.907 150.648 117.72C150.968 117.533 151.358 117.44 151.818 117.44V118.17H151.628C151.122 118.17 150.715 118.307 150.408 118.58C150.102 118.853 149.948 119.31 149.948 119.95V123H149.248V117.54H149.948V118.51ZM153.221 116.51C153.081 116.51 152.961 116.46 152.861 116.36C152.761 116.26 152.711 116.137 152.711 115.99C152.711 115.843 152.761 115.723 152.861 115.63C152.961 115.53 153.081 115.48 153.221 115.48C153.361 115.48 153.481 115.53 153.581 115.63C153.681 115.723 153.731 115.843 153.731 115.99C153.731 116.137 153.681 116.26 153.581 116.36C153.481 116.46 153.361 116.51 153.221 116.51ZM153.571 117.54V123H152.871V117.54H153.571ZM157.546 123.08C157.033 123.08 156.57 122.967 156.156 122.74C155.75 122.507 155.426 122.18 155.186 121.76C154.953 121.333 154.836 120.837 154.836 120.27C154.836 119.703 154.956 119.21 155.196 118.79C155.436 118.363 155.763 118.037 156.176 117.81C156.59 117.577 157.053 117.46 157.566 117.46C158.08 117.46 158.543 117.577 158.956 117.81C159.376 118.037 159.703 118.363 159.936 118.79C160.176 119.21 160.296 119.703 160.296 120.27C160.296 120.83 160.176 121.323 159.936 121.75C159.696 122.177 159.366 122.507 158.946 122.74C158.526 122.967 158.06 123.08 157.546 123.08ZM157.546 122.47C157.906 122.47 158.24 122.39 158.546 122.23C158.853 122.063 159.1 121.817 159.286 121.49C159.48 121.157 159.576 120.75 159.576 120.27C159.576 119.79 159.483 119.387 159.296 119.06C159.11 118.727 158.863 118.48 158.556 118.32C158.25 118.153 157.916 118.07 157.556 118.07C157.196 118.07 156.863 118.153 156.556 118.32C156.25 118.48 156.003 118.727 155.816 119.06C155.636 119.387 155.546 119.79 155.546 120.27C155.546 120.75 155.636 121.157 155.816 121.49C156.003 121.817 156.246 122.063 156.546 122.23C156.853 122.39 157.186 122.47 157.546 122.47ZM162.272 118.51C162.426 118.17 162.659 117.907 162.972 117.72C163.292 117.533 163.682 117.44 164.142 117.44V118.17H163.952C163.446 118.17 163.039 118.307 162.732 118.58C162.426 118.853 162.272 119.31 162.272 119.95V123H161.572V117.54H162.272V118.51ZM165.546 116.51C165.406 116.51 165.286 116.46 165.186 116.36C165.086 116.26 165.036 116.137 165.036 115.99C165.036 115.843 165.086 115.723 165.186 115.63C165.286 115.53 165.406 115.48 165.546 115.48C165.686 115.48 165.806 115.53 165.906 115.63C166.006 115.723 166.056 115.843 166.056 115.99C166.056 116.137 166.006 116.26 165.906 116.36C165.806 116.46 165.686 116.51 165.546 116.51ZM165.896 117.54V123H165.196V117.54H165.896ZM168.391 118.13V121.52C168.391 121.853 168.454 122.083 168.581 122.21C168.707 122.337 168.931 122.4 169.251 122.4H169.891V123H169.141C168.647 123 168.281 122.887 168.041 122.66C167.801 122.427 167.681 122.047 167.681 121.52V118.13H166.921V117.54H167.681V116.17H168.391V117.54H169.891V118.13H168.391ZM171.395 116.51C171.255 116.51 171.135 116.46 171.035 116.36C170.935 116.26 170.885 116.137 170.885 115.99C170.885 115.843 170.935 115.723 171.035 115.63C171.135 115.53 171.255 115.48 171.395 115.48C171.535 115.48 171.655 115.53 171.755 115.63C171.855 115.723 171.905 115.843 171.905 115.99C171.905 116.137 171.855 116.26 171.755 116.36C171.655 116.46 171.535 116.51 171.395 116.51ZM171.745 117.54V123H171.045V117.54H171.745ZM178.27 119.99C178.27 120.23 178.264 120.413 178.25 120.54H173.72C173.74 120.953 173.84 121.307 174.02 121.6C174.2 121.893 174.437 122.117 174.73 122.27C175.024 122.417 175.344 122.49 175.69 122.49C176.144 122.49 176.524 122.38 176.83 122.16C177.144 121.94 177.35 121.643 177.45 121.27H178.19C178.057 121.803 177.77 122.24 177.33 122.58C176.897 122.913 176.35 123.08 175.69 123.08C175.177 123.08 174.717 122.967 174.31 122.74C173.904 122.507 173.584 122.18 173.35 121.76C173.124 121.333 173.01 120.837 173.01 120.27C173.01 119.703 173.124 119.207 173.35 118.78C173.577 118.353 173.894 118.027 174.3 117.8C174.707 117.573 175.17 117.46 175.69 117.46C176.21 117.46 176.664 117.573 177.05 117.8C177.444 118.027 177.744 118.333 177.95 118.72C178.164 119.1 178.27 119.523 178.27 119.99ZM177.56 119.97C177.567 119.563 177.484 119.217 177.31 118.93C177.144 118.643 176.914 118.427 176.62 118.28C176.327 118.133 176.007 118.06 175.66 118.06C175.14 118.06 174.697 118.227 174.33 118.56C173.964 118.893 173.76 119.363 173.72 119.97H177.56ZM181.431 123.08C180.804 123.08 180.291 122.937 179.891 122.65C179.498 122.357 179.278 121.96 179.231 121.46H179.951C179.984 121.767 180.128 122.017 180.381 122.21C180.641 122.397 180.988 122.49 181.421 122.49C181.801 122.49 182.098 122.4 182.311 122.22C182.531 122.04 182.641 121.817 182.641 121.55C182.641 121.363 182.581 121.21 182.461 121.09C182.341 120.97 182.188 120.877 182.001 120.81C181.821 120.737 181.574 120.66 181.261 120.58C180.854 120.473 180.524 120.367 180.271 120.26C180.018 120.153 179.801 119.997 179.621 119.79C179.448 119.577 179.361 119.293 179.361 118.94C179.361 118.673 179.441 118.427 179.601 118.2C179.761 117.973 179.988 117.793 180.281 117.66C180.574 117.527 180.908 117.46 181.281 117.46C181.868 117.46 182.341 117.61 182.701 117.91C183.061 118.203 183.254 118.61 183.281 119.13H182.581C182.561 118.81 182.434 118.553 182.201 118.36C181.974 118.16 181.661 118.06 181.261 118.06C180.908 118.06 180.621 118.143 180.401 118.31C180.181 118.477 180.071 118.683 180.071 118.93C180.071 119.143 180.134 119.32 180.261 119.46C180.394 119.593 180.558 119.7 180.751 119.78C180.944 119.853 181.204 119.937 181.531 120.03C181.924 120.137 182.238 120.24 182.471 120.34C182.704 120.44 182.904 120.587 183.071 120.78C183.238 120.973 183.324 121.23 183.331 121.55C183.331 121.843 183.251 122.107 183.091 122.34C182.931 122.567 182.708 122.747 182.421 122.88C182.134 123.013 181.804 123.08 181.431 123.08ZM184.769 123.05C184.622 123.05 184.499 123 184.399 122.9C184.305 122.8 184.259 122.677 184.259 122.53C184.259 122.383 184.305 122.263 184.399 122.17C184.499 122.07 184.622 122.02 184.769 122.02C184.909 122.02 185.025 122.07 185.119 122.17C185.219 122.263 185.269 122.383 185.269 122.53C185.269 122.677 185.219 122.8 185.119 122.9C185.025 123 184.909 123.05 184.769 123.05ZM55.0525 131.01L53.0725 138H52.2925L50.5325 132.04L48.7325 138L47.9725 138.01L46.0325 131.01H46.7825L48.3825 137.14L50.1725 131.01H50.9525L52.6925 137.14L54.3025 131.01H55.0525ZM61.0632 134.99C61.0632 135.23 61.0566 135.413 61.0432 135.54H56.5132C56.5332 135.953 56.6332 136.307 56.8132 136.6C56.9932 136.893 57.2299 137.117 57.5232 137.27C57.8166 137.417 58.1366 137.49 58.4832 137.49C58.9366 137.49 59.3166 137.38 59.6232 137.16C59.9366 136.94 60.1432 136.643 60.2432 136.27H60.9832C60.8499 136.803 60.5632 137.24 60.1232 137.58C59.6899 137.913 59.1432 138.08 58.4832 138.08C57.9699 138.08 57.5099 137.967 57.1032 137.74C56.6966 137.507 56.3766 137.18 56.1432 136.76C55.9166 136.333 55.8032 135.837 55.8032 135.27C55.8032 134.703 55.9166 134.207 56.1432 133.78C56.3699 133.353 56.6866 133.027 57.0932 132.8C57.4999 132.573 57.9632 132.46 58.4832 132.46C59.0032 132.46 59.4566 132.573 59.8432 132.8C60.2366 133.027 60.5366 133.333 60.7432 133.72C60.9566 134.1 61.0632 134.523 61.0632 134.99ZM60.3532 134.97C60.3599 134.563 60.2766 134.217 60.1032 133.93C59.9366 133.643 59.7066 133.427 59.4132 133.28C59.1199 133.133 58.7999 133.06 58.4532 133.06C57.9332 133.06 57.4899 133.227 57.1232 133.56C56.7566 133.893 56.5532 134.363 56.5132 134.97H60.3532ZM64.7681 135.26C64.7681 134.7 64.8781 134.21 65.0981 133.79C65.3248 133.363 65.6348 133.037 66.0281 132.81C66.4281 132.577 66.8781 132.46 67.3781 132.46C67.8981 132.46 68.3448 132.58 68.7181 132.82C69.0981 133.06 69.3714 133.367 69.5381 133.74V132.54H70.2381V138H69.5381V136.79C69.3648 137.163 69.0881 137.473 68.7081 137.72C68.3348 137.96 67.8881 138.08 67.3681 138.08C66.8748 138.08 66.4281 137.963 66.0281 137.73C65.6348 137.497 65.3248 137.167 65.0981 136.74C64.8781 136.313 64.7681 135.82 64.7681 135.26ZM69.5381 135.27C69.5381 134.83 69.4481 134.443 69.2681 134.11C69.0881 133.777 68.8414 133.52 68.5281 133.34C68.2214 133.16 67.8814 133.07 67.5081 133.07C67.1214 133.07 66.7748 133.157 66.4681 133.33C66.1614 133.503 65.9181 133.757 65.7381 134.09C65.5648 134.417 65.4781 134.807 65.4781 135.26C65.4781 135.707 65.5648 136.1 65.7381 136.44C65.9181 136.773 66.1614 137.03 66.4681 137.21C66.7748 137.383 67.1214 137.47 67.5081 137.47C67.8814 137.47 68.2214 137.38 68.5281 137.2C68.8414 137.02 69.0881 136.763 69.2681 136.43C69.4481 136.097 69.5381 135.71 69.5381 135.27ZM72.5361 133.51C72.6895 133.17 72.9228 132.907 73.2361 132.72C73.5561 132.533 73.9461 132.44 74.4061 132.44V133.17H74.2161C73.7095 133.17 73.3028 133.307 72.9961 133.58C72.6895 133.853 72.5361 134.31 72.5361 134.95V138H71.8361V132.54H72.5361V133.51ZM80.3992 134.99C80.3992 135.23 80.3925 135.413 80.3792 135.54H75.8492C75.8692 135.953 75.9692 136.307 76.1492 136.6C76.3292 136.893 76.5658 137.117 76.8592 137.27C77.1525 137.417 77.4725 137.49 77.8192 137.49C78.2725 137.49 78.6525 137.38 78.9592 137.16C79.2725 136.94 79.4792 136.643 79.5792 136.27H80.3192C80.1858 136.803 79.8992 137.24 79.4592 137.58C79.0258 137.913 78.4792 138.08 77.8192 138.08C77.3058 138.08 76.8458 137.967 76.4392 137.74C76.0325 137.507 75.7125 137.18 75.4792 136.76C75.2525 136.333 75.1392 135.837 75.1392 135.27C75.1392 134.703 75.2525 134.207 75.4792 133.78C75.7058 133.353 76.0225 133.027 76.4292 132.8C76.8358 132.573 77.2992 132.46 77.8192 132.46C78.3392 132.46 78.7925 132.573 79.1792 132.8C79.5725 133.027 79.8725 133.333 80.0792 133.72C80.2925 134.1 80.3992 134.523 80.3992 134.99ZM79.6892 134.97C79.6958 134.563 79.6125 134.217 79.4392 133.93C79.2725 133.643 79.0425 133.427 78.7492 133.28C78.4558 133.133 78.1358 133.06 77.7892 133.06C77.2692 133.06 76.8258 133.227 76.4592 133.56C76.0925 133.893 75.8892 134.363 75.8492 134.97H79.6892ZM84.104 135.26C84.104 134.7 84.214 134.21 84.434 133.79C84.6607 133.363 84.9707 133.037 85.364 132.81C85.764 132.577 86.214 132.46 86.714 132.46C87.234 132.46 87.6807 132.58 88.054 132.82C88.434 133.06 88.7074 133.367 88.874 133.74V132.54H89.574V138H88.874V136.79C88.7007 137.163 88.424 137.473 88.044 137.72C87.6707 137.96 87.224 138.08 86.704 138.08C86.2107 138.08 85.764 137.963 85.364 137.73C84.9707 137.497 84.6607 137.167 84.434 136.74C84.214 136.313 84.104 135.82 84.104 135.26ZM88.874 135.27C88.874 134.83 88.784 134.443 88.604 134.11C88.424 133.777 88.1774 133.52 87.864 133.34C87.5574 133.16 87.2174 133.07 86.844 133.07C86.4574 133.07 86.1107 133.157 85.804 133.33C85.4974 133.503 85.254 133.757 85.074 134.09C84.9007 134.417 84.814 134.807 84.814 135.26C84.814 135.707 84.9007 136.1 85.074 136.44C85.254 136.773 85.4974 137.03 85.804 137.21C86.1107 137.383 86.4574 137.47 86.844 137.47C87.2174 137.47 87.5574 137.38 87.864 137.2C88.1774 137.02 88.424 136.763 88.604 136.43C88.784 136.097 88.874 135.71 88.874 135.27ZM93.5962 135.26C93.5962 134.7 93.7095 134.21 93.9362 133.79C94.1629 133.363 94.4729 133.037 94.8662 132.81C95.2662 132.577 95.7162 132.46 96.2162 132.46C96.6962 132.46 97.1295 132.577 97.5162 132.81C97.9029 133.043 98.1862 133.347 98.3662 133.72V130.6H99.0662V138H98.3662V136.78C98.1995 137.16 97.9262 137.473 97.5462 137.72C97.1662 137.96 96.7195 138.08 96.2062 138.08C95.7062 138.08 95.2562 137.963 94.8562 137.73C94.4629 137.497 94.1529 137.167 93.9262 136.74C93.7062 136.313 93.5962 135.82 93.5962 135.26ZM98.3662 135.27C98.3662 134.83 98.2762 134.443 98.0962 134.11C97.9162 133.777 97.6695 133.52 97.3562 133.34C97.0495 133.16 96.7095 133.07 96.3362 133.07C95.9495 133.07 95.6029 133.157 95.2962 133.33C94.9895 133.503 94.7462 133.757 94.5662 134.09C94.3929 134.417 94.3062 134.807 94.3062 135.26C94.3062 135.707 94.3929 136.1 94.5662 136.44C94.7462 136.773 94.9895 137.03 95.2962 137.21C95.6029 137.383 95.9495 137.47 96.3362 137.47C96.7095 137.47 97.0495 137.38 97.3562 137.2C97.6695 137.02 97.9162 136.763 98.0962 136.43C98.2762 136.097 98.3662 135.71 98.3662 135.27ZM105.604 134.99C105.604 135.23 105.598 135.413 105.584 135.54H101.054C101.074 135.953 101.174 136.307 101.354 136.6C101.534 136.893 101.771 137.117 102.064 137.27C102.358 137.417 102.678 137.49 103.024 137.49C103.478 137.49 103.858 137.38 104.164 137.16C104.478 136.94 104.684 136.643 104.784 136.27H105.524C105.391 136.803 105.104 137.24 104.664 137.58C104.231 137.913 103.684 138.08 103.024 138.08C102.511 138.08 102.051 137.967 101.644 137.74C101.238 137.507 100.918 137.18 100.684 136.76C100.458 136.333 100.344 135.837 100.344 135.27C100.344 134.703 100.458 134.207 100.684 133.78C100.911 133.353 101.228 133.027 101.634 132.8C102.041 132.573 102.504 132.46 103.024 132.46C103.544 132.46 103.998 132.573 104.384 132.8C104.778 133.027 105.078 133.333 105.284 133.72C105.498 134.1 105.604 134.523 105.604 134.99ZM104.894 134.97C104.901 134.563 104.818 134.217 104.644 133.93C104.478 133.643 104.248 133.427 103.954 133.28C103.661 133.133 103.341 133.06 102.994 133.06C102.474 133.06 102.031 133.227 101.664 133.56C101.298 133.893 101.094 134.363 101.054 134.97H104.894ZM106.565 135.26C106.565 134.7 106.678 134.21 106.905 133.79C107.132 133.363 107.442 133.037 107.835 132.81C108.235 132.577 108.685 132.46 109.185 132.46C109.665 132.46 110.098 132.577 110.485 132.81C110.872 133.043 111.155 133.347 111.335 133.72V130.6H112.035V138H111.335V136.78C111.168 137.16 110.895 137.473 110.515 137.72C110.135 137.96 109.688 138.08 109.175 138.08C108.675 138.08 108.225 137.963 107.825 137.73C107.432 137.497 107.122 137.167 106.895 136.74C106.675 136.313 106.565 135.82 106.565 135.26ZM111.335 135.27C111.335 134.83 111.245 134.443 111.065 134.11C110.885 133.777 110.638 133.52 110.325 133.34C110.018 133.16 109.678 133.07 109.305 133.07C108.918 133.07 108.572 133.157 108.265 133.33C107.958 133.503 107.715 133.757 107.535 134.09C107.362 134.417 107.275 134.807 107.275 135.26C107.275 135.707 107.362 136.1 107.535 136.44C107.715 136.773 107.958 137.03 108.265 137.21C108.572 137.383 108.918 137.47 109.305 137.47C109.678 137.47 110.018 137.38 110.325 137.2C110.638 137.02 110.885 136.763 111.065 136.43C111.245 136.097 111.335 135.71 111.335 135.27ZM113.983 131.51C113.843 131.51 113.723 131.46 113.623 131.36C113.523 131.26 113.473 131.137 113.473 130.99C113.473 130.843 113.523 130.723 113.623 130.63C113.723 130.53 113.843 130.48 113.983 130.48C114.123 130.48 114.243 130.53 114.343 130.63C114.443 130.723 114.493 130.843 114.493 130.99C114.493 131.137 114.443 131.26 114.343 131.36C114.243 131.46 114.123 131.51 113.983 131.51ZM114.333 132.54V138H113.633V132.54H114.333ZM115.598 135.27C115.598 134.703 115.711 134.21 115.938 133.79C116.165 133.363 116.478 133.037 116.878 132.81C117.278 132.577 117.735 132.46 118.248 132.46C118.921 132.46 119.475 132.627 119.908 132.96C120.348 133.293 120.631 133.747 120.758 134.32H120.008C119.915 133.927 119.711 133.62 119.398 133.4C119.091 133.173 118.708 133.06 118.248 133.06C117.881 133.06 117.551 133.143 117.258 133.31C116.965 133.477 116.731 133.727 116.558 134.06C116.391 134.387 116.308 134.79 116.308 135.27C116.308 135.75 116.391 136.157 116.558 136.49C116.731 136.823 116.965 137.073 117.258 137.24C117.551 137.407 117.881 137.49 118.248 137.49C118.708 137.49 119.091 137.38 119.398 137.16C119.711 136.933 119.915 136.62 120.008 136.22H120.758C120.631 136.78 120.348 137.23 119.908 137.57C119.468 137.91 118.915 138.08 118.248 138.08C117.735 138.08 117.278 137.967 116.878 137.74C116.478 137.507 116.165 137.18 115.938 136.76C115.711 136.333 115.598 135.837 115.598 135.27ZM121.731 135.26C121.731 134.7 121.841 134.21 122.061 133.79C122.288 133.363 122.598 133.037 122.991 132.81C123.391 132.577 123.841 132.46 124.341 132.46C124.861 132.46 125.308 132.58 125.681 132.82C126.061 133.06 126.334 133.367 126.501 133.74V132.54H127.201V138H126.501V136.79C126.328 137.163 126.051 137.473 125.671 137.72C125.298 137.96 124.851 138.08 124.331 138.08C123.838 138.08 123.391 137.963 122.991 137.73C122.598 137.497 122.288 137.167 122.061 136.74C121.841 136.313 121.731 135.82 121.731 135.26ZM126.501 135.27C126.501 134.83 126.411 134.443 126.231 134.11C126.051 133.777 125.804 133.52 125.491 133.34C125.184 133.16 124.844 133.07 124.471 133.07C124.084 133.07 123.738 133.157 123.431 133.33C123.124 133.503 122.881 133.757 122.701 134.09C122.528 134.417 122.441 134.807 122.441 135.26C122.441 135.707 122.528 136.1 122.701 136.44C122.881 136.773 123.124 137.03 123.431 137.21C123.738 137.383 124.084 137.47 124.471 137.47C124.844 137.47 125.184 137.38 125.491 137.2C125.804 137.02 126.051 136.763 126.231 136.43C126.411 136.097 126.501 135.71 126.501 135.27ZM129.709 133.13V136.52C129.709 136.853 129.772 137.083 129.899 137.21C130.026 137.337 130.249 137.4 130.569 137.4H131.209V138H130.459C129.966 138 129.599 137.887 129.359 137.66C129.119 137.427 128.999 137.047 128.999 136.52V133.13H128.239V132.54H128.999V131.17H129.709V132.54H131.209V133.13H129.709ZM137.303 134.99C137.303 135.23 137.297 135.413 137.283 135.54H132.753C132.773 135.953 132.873 136.307 133.053 136.6C133.233 136.893 133.47 137.117 133.763 137.27C134.057 137.417 134.377 137.49 134.723 137.49C135.177 137.49 135.557 137.38 135.863 137.16C136.177 136.94 136.383 136.643 136.483 136.27H137.223C137.09 136.803 136.803 137.24 136.363 137.58C135.93 137.913 135.383 138.08 134.723 138.08C134.21 138.08 133.75 137.967 133.343 137.74C132.937 137.507 132.617 137.18 132.383 136.76C132.157 136.333 132.043 135.837 132.043 135.27C132.043 134.703 132.157 134.207 132.383 133.78C132.61 133.353 132.927 133.027 133.333 132.8C133.74 132.573 134.203 132.46 134.723 132.46C135.243 132.46 135.697 132.573 136.083 132.8C136.477 133.027 136.777 133.333 136.983 133.72C137.197 134.1 137.303 134.523 137.303 134.99ZM136.593 134.97C136.6 134.563 136.517 134.217 136.343 133.93C136.177 133.643 135.947 133.427 135.653 133.28C135.36 133.133 135.04 133.06 134.693 133.06C134.173 133.06 133.73 133.227 133.363 133.56C132.997 133.893 132.793 134.363 132.753 134.97H136.593ZM138.264 135.26C138.264 134.7 138.378 134.21 138.604 133.79C138.831 133.363 139.141 133.037 139.534 132.81C139.934 132.577 140.384 132.46 140.884 132.46C141.364 132.46 141.798 132.577 142.184 132.81C142.571 133.043 142.854 133.347 143.034 133.72V130.6H143.734V138H143.034V136.78C142.868 137.16 142.594 137.473 142.214 137.72C141.834 137.96 141.388 138.08 140.874 138.08C140.374 138.08 139.924 137.963 139.524 137.73C139.131 137.497 138.821 137.167 138.594 136.74C138.374 136.313 138.264 135.82 138.264 135.26ZM143.034 135.27C143.034 134.83 142.944 134.443 142.764 134.11C142.584 133.777 142.338 133.52 142.024 133.34C141.718 133.16 141.378 133.07 141.004 133.07C140.618 133.07 140.271 133.157 139.964 133.33C139.658 133.503 139.414 133.757 139.234 134.09C139.061 134.417 138.974 134.807 138.974 135.26C138.974 135.707 139.061 136.1 139.234 136.44C139.414 136.773 139.658 137.03 139.964 137.21C140.271 137.383 140.618 137.47 141.004 137.47C141.378 137.47 141.718 137.38 142.024 137.2C142.338 137.02 142.584 136.763 142.764 136.43C142.944 136.097 143.034 135.71 143.034 135.27ZM148.986 133.13V136.52C148.986 136.853 149.05 137.083 149.176 137.21C149.303 137.337 149.526 137.4 149.846 137.4H150.486V138H149.736C149.243 138 148.876 137.887 148.636 137.66C148.396 137.427 148.276 137.047 148.276 136.52V133.13H147.516V132.54H148.276V131.17H148.986V132.54H150.486V133.13H148.986ZM156.581 134.99C156.581 135.23 156.574 135.413 156.561 135.54H152.031C152.051 135.953 152.151 136.307 152.331 136.6C152.511 136.893 152.747 137.117 153.041 137.27C153.334 137.417 153.654 137.49 154.001 137.49C154.454 137.49 154.834 137.38 155.141 137.16C155.454 136.94 155.661 136.643 155.761 136.27H156.501C156.367 136.803 156.081 137.24 155.641 137.58C155.207 137.913 154.661 138.08 154.001 138.08C153.487 138.08 153.027 137.967 152.621 137.74C152.214 137.507 151.894 137.18 151.661 136.76C151.434 136.333 151.321 135.837 151.321 135.27C151.321 134.703 151.434 134.207 151.661 133.78C151.887 133.353 152.204 133.027 152.611 132.8C153.017 132.573 153.481 132.46 154.001 132.46C154.521 132.46 154.974 132.573 155.361 132.8C155.754 133.027 156.054 133.333 156.261 133.72C156.474 134.1 156.581 134.523 156.581 134.99ZM155.871 134.97C155.877 134.563 155.794 134.217 155.621 133.93C155.454 133.643 155.224 133.427 154.931 133.28C154.637 133.133 154.317 133.06 153.971 133.06C153.451 133.06 153.007 133.227 152.641 133.56C152.274 133.893 152.071 134.363 152.031 134.97H155.871ZM157.542 135.26C157.542 134.7 157.652 134.21 157.872 133.79C158.098 133.363 158.408 133.037 158.802 132.81C159.202 132.577 159.652 132.46 160.152 132.46C160.672 132.46 161.118 132.58 161.492 132.82C161.872 133.06 162.145 133.367 162.312 133.74V132.54H163.012V138H162.312V136.79C162.138 137.163 161.862 137.473 161.482 137.72C161.108 137.96 160.662 138.08 160.142 138.08C159.648 138.08 159.202 137.963 158.802 137.73C158.408 137.497 158.098 137.167 157.872 136.74C157.652 136.313 157.542 135.82 157.542 135.26ZM162.312 135.27C162.312 134.83 162.222 134.443 162.042 134.11C161.862 133.777 161.615 133.52 161.302 133.34C160.995 133.16 160.655 133.07 160.282 133.07C159.895 133.07 159.548 133.157 159.242 133.33C158.935 133.503 158.692 133.757 158.512 134.09C158.338 134.417 158.252 134.807 158.252 135.26C158.252 135.707 158.338 136.1 158.512 136.44C158.692 136.773 158.935 137.03 159.242 137.21C159.548 137.383 159.895 137.47 160.282 137.47C160.655 137.47 160.995 137.38 161.302 137.2C161.615 137.02 161.862 136.763 162.042 136.43C162.222 136.097 162.312 135.71 162.312 135.27ZM171.11 132.44C171.75 132.44 172.27 132.643 172.67 133.05C173.076 133.45 173.28 134.033 173.28 134.8V138H172.59V134.88C172.59 134.287 172.446 133.833 172.16 133.52C171.873 133.207 171.483 133.05 170.99 133.05C170.476 133.05 170.066 133.22 169.76 133.56C169.453 133.9 169.3 134.393 169.3 135.04V138H168.61V134.88C168.61 134.287 168.466 133.833 168.18 133.52C167.893 133.207 167.5 133.05 167 133.05C166.486 133.05 166.076 133.22 165.77 133.56C165.463 133.9 165.31 134.393 165.31 135.04V138H164.61V132.54H165.31V133.48C165.483 133.14 165.73 132.883 166.05 132.71C166.37 132.53 166.726 132.44 167.12 132.44C167.593 132.44 168.006 132.553 168.36 132.78C168.72 133.007 168.98 133.34 169.14 133.78C169.286 133.347 169.536 133.017 169.89 132.79C170.25 132.557 170.656 132.44 171.11 132.44ZM177.698 138.05C177.552 138.05 177.428 138 177.328 137.9C177.235 137.8 177.188 137.677 177.188 137.53C177.188 137.383 177.235 137.263 177.328 137.17C177.428 137.07 177.552 137.02 177.698 137.02C177.838 137.02 177.955 137.07 178.048 137.17C178.148 137.263 178.198 137.383 178.198 137.53C178.198 137.677 178.148 137.8 178.048 137.9C177.955 138 177.838 138.05 177.698 138.05ZM179.515 138.05C179.368 138.05 179.245 138 179.145 137.9C179.051 137.8 179.005 137.677 179.005 137.53C179.005 137.383 179.051 137.263 179.145 137.17C179.245 137.07 179.368 137.02 179.515 137.02C179.655 137.02 179.771 137.07 179.865 137.17C179.965 137.263 180.015 137.383 180.015 137.53C180.015 137.677 179.965 137.8 179.865 137.9C179.771 138 179.655 138.05 179.515 138.05ZM181.331 138.05C181.184 138.05 181.061 138 180.961 137.9C180.868 137.8 180.821 137.677 180.821 137.53C180.821 137.383 180.868 137.263 180.961 137.17C181.061 137.07 181.184 137.02 181.331 137.02C181.471 137.02 181.588 137.07 181.681 137.17C181.781 137.263 181.831 137.383 181.831 137.53C181.831 137.677 181.781 137.8 181.681 137.9C181.588 138 181.471 138.05 181.331 138.05Z" fill="#D2691E"/>
<rect width="218" height="16" transform="translate(5 15)" fill="#01014F"/>
<path d="M15.3894 18.03V23.18C15.3894 23.7533 15.2127 24.2133 14.8594 24.56C14.506 24.9 14.0394 25.07 13.4594 25.07C12.8727 25.07 12.4027 24.8967 12.0494 24.55C11.696 24.1967 11.5194 23.7167 11.5194 23.11H12.4294C12.436 23.45 12.5227 23.7267 12.6894 23.94C12.8627 24.1533 13.1194 24.26 13.4594 24.26C13.7994 24.26 14.0527 24.16 14.2194 23.96C14.386 23.7533 14.4694 23.4933 14.4694 23.18V18.03H15.3894ZM19.0921 18.77V21.1H21.6321V21.85H19.0921V24.25H21.9321V25H18.1821V18.02H21.9321V18.77H19.0921ZM31.3791 18.08V25H30.4691V19.84L28.1691 25H27.5291L25.2191 19.83V25H24.3091V18.08H25.2891L27.8491 23.8L30.4091 18.08H31.3791ZM38.0423 23.45H35.0023L34.4423 25H33.4823L36.0023 18.07H37.0523L39.5623 25H38.6023L38.0423 23.45ZM37.7823 22.71L36.5223 19.19L35.2623 22.71H37.7823Z" fill="white"/>
<path d="M84.0404 25.08C83.4137 25.08 82.9004 24.9367 82.5004 24.65C82.107 24.3567 81.887 23.96 81.8404 23.46H82.5604C82.5937 23.7667 82.737 24.0167 82.9904 24.21C83.2504 24.3967 83.597 24.49 84.0304 24.49C84.4104 24.49 84.707 24.4 84.9204 24.22C85.1404 24.04 85.2504 23.8167 85.2504 23.55C85.2504 23.3633 85.1904 23.21 85.0704 23.09C84.9504 22.97 84.797 22.8767 84.6104 22.81C84.4304 22.7367 84.1837 22.66 83.8704 22.58C83.4637 22.4733 83.1337 22.3667 82.8804 22.26C82.627 22.1533 82.4104 21.9967 82.2304 21.79C82.057 21.5767 81.9704 21.2933 81.9704 20.94C81.9704 20.6733 82.0504 20.4267 82.2104 20.2C82.3704 19.9733 82.597 19.7933 82.8904 19.66C83.1837 19.5267 83.517 19.46 83.8904 19.46C84.477 19.46 84.9504 19.61 85.3104 19.91C85.6704 20.2033 85.8637 20.61 85.8904 21.13H85.1904C85.1704 20.81 85.0437 20.5533 84.8104 20.36C84.5837 20.16 84.2704 20.06 83.8704 20.06C83.517 20.06 83.2304 20.1433 83.0104 20.31C82.7904 20.4767 82.6804 20.6833 82.6804 20.93C82.6804 21.1433 82.7437 21.32 82.8704 21.46C83.0037 21.5933 83.167 21.7 83.3604 21.78C83.5537 21.8533 83.8137 21.9367 84.1404 22.03C84.5337 22.1367 84.847 22.24 85.0804 22.34C85.3137 22.44 85.5137 22.5867 85.6804 22.78C85.847 22.9733 85.9337 23.23 85.9404 23.55C85.9404 23.8433 85.8604 24.1067 85.7004 24.34C85.5404 24.5667 85.317 24.7467 85.0304 24.88C84.7437 25.0133 84.4137 25.08 84.0404 25.08ZM88.608 18.51C88.468 18.51 88.348 18.46 88.248 18.36C88.148 18.26 88.098 18.1367 88.098 17.99C88.098 17.8433 88.148 17.7233 88.248 17.63C88.348 17.53 88.468 17.48 88.608 17.48C88.748 17.48 88.868 17.53 88.968 17.63C89.068 17.7233 89.118 17.8433 89.118 17.99C89.118 18.1367 89.068 18.26 88.968 18.36C88.868 18.46 88.748 18.51 88.608 18.51ZM88.958 19.54V25H88.258V19.54H88.958ZM93.8332 19.46C94.3465 19.46 94.7932 19.58 95.1732 19.82C95.5532 20.06 95.8265 20.3633 95.9932 20.73V19.54H96.6932V25.14C96.6932 25.64 96.5832 26.0833 96.3632 26.47C96.1498 26.8567 95.8498 27.1533 95.4632 27.36C95.0765 27.5733 94.6365 27.68 94.1432 27.68C93.4432 27.68 92.8598 27.5133 92.3932 27.18C91.9332 26.8467 91.6465 26.3933 91.5332 25.82H92.2232C92.3432 26.2 92.5698 26.5033 92.9032 26.73C93.2432 26.9567 93.6565 27.07 94.1432 27.07C94.4965 27.07 94.8132 26.9933 95.0932 26.84C95.3732 26.6933 95.5932 26.4733 95.7532 26.18C95.9132 25.8867 95.9932 25.54 95.9932 25.14V23.79C95.8198 24.1633 95.5432 24.4733 95.1632 24.72C94.7898 24.96 94.3465 25.08 93.8332 25.08C93.3332 25.08 92.8832 24.9633 92.4832 24.73C92.0898 24.4967 91.7798 24.1667 91.5532 23.74C91.3332 23.3133 91.2232 22.82 91.2232 22.26C91.2232 21.7 91.3332 21.21 91.5532 20.79C91.7798 20.3633 92.0898 20.0367 92.4832 19.81C92.8832 19.5767 93.3332 19.46 93.8332 19.46ZM95.9932 22.27C95.9932 21.83 95.9032 21.4433 95.7232 21.11C95.5432 20.7767 95.2965 20.52 94.9832 20.34C94.6765 20.16 94.3365 20.07 93.9632 20.07C93.5765 20.07 93.2298 20.1567 92.9232 20.33C92.6165 20.5033 92.3732 20.7567 92.1932 21.09C92.0198 21.4167 91.9332 21.8067 91.9332 22.26C91.9332 22.7067 92.0198 23.1 92.1932 23.44C92.3732 23.7733 92.6165 24.03 92.9232 24.21C93.2298 24.3833 93.5765 24.47 93.9632 24.47C94.3365 24.47 94.6765 24.38 94.9832 24.2C95.2965 24.02 95.5432 23.7633 95.7232 23.43C95.9032 23.0967 95.9932 22.71 95.9932 22.27ZM101.851 19.44C102.505 19.44 103.038 19.6433 103.451 20.05C103.865 20.45 104.071 21.0333 104.071 21.8V25H103.381V21.88C103.381 21.2867 103.231 20.8333 102.931 20.52C102.638 20.2067 102.235 20.05 101.721 20.05C101.195 20.05 100.775 20.2167 100.461 20.55C100.148 20.8833 99.9912 21.3733 99.9912 22.02V25H99.2912V19.54H99.9912V20.47C100.165 20.1367 100.415 19.8833 100.741 19.71C101.068 19.53 101.438 19.44 101.851 19.44ZM115.093 19.54V25H114.393V24.04C114.233 24.38 113.987 24.64 113.653 24.82C113.32 25 112.947 25.09 112.533 25.09C111.88 25.09 111.347 24.89 110.933 24.49C110.52 24.0833 110.313 23.4967 110.313 22.73V19.54H111.003V22.65C111.003 23.2433 111.15 23.6967 111.443 24.01C111.743 24.3233 112.15 24.48 112.663 24.48C113.19 24.48 113.61 24.3133 113.923 23.98C114.237 23.6467 114.393 23.1567 114.393 22.51V19.54H115.093ZM118.382 20.74C118.555 20.3733 118.828 20.07 119.202 19.83C119.582 19.5833 120.032 19.46 120.552 19.46C121.045 19.46 121.488 19.5767 121.882 19.81C122.282 20.0367 122.592 20.3633 122.812 20.79C123.038 21.21 123.152 21.7 123.152 22.26C123.152 22.82 123.038 23.3133 122.812 23.74C122.592 24.1667 122.282 24.4967 121.882 24.73C121.488 24.9633 121.045 25.08 120.552 25.08C120.038 25.08 119.592 24.96 119.212 24.72C118.832 24.4733 118.555 24.1667 118.382 23.8V27.58H117.692V19.54H118.382V20.74ZM122.442 22.26C122.442 21.8067 122.352 21.4167 122.172 21.09C121.998 20.7567 121.758 20.5033 121.452 20.33C121.145 20.1567 120.798 20.07 120.412 20.07C120.038 20.07 119.695 20.16 119.382 20.34C119.075 20.52 118.832 20.7767 118.652 21.11C118.472 21.4433 118.382 21.83 118.382 22.27C118.382 22.71 118.472 23.0967 118.652 23.43C118.832 23.7633 119.075 24.02 119.382 24.2C119.695 24.38 120.038 24.47 120.412 24.47C120.798 24.47 121.145 24.3833 121.452 24.21C121.758 24.03 121.998 23.7733 122.172 23.44C122.352 23.1 122.442 22.7067 122.442 22.26Z" fill="white"/>
<path d="M135.107 25.08C134.48 25.08 133.967 24.9367 133.567 24.65C133.173 24.3567 132.953 23.96 132.907 23.46H133.627C133.66 23.7667 133.803 24.0167 134.057 24.21C134.317 24.3967 134.663 24.49 135.097 24.49C135.477 24.49 135.773 24.4 135.987 24.22C136.207 24.04 136.317 23.8167 136.317 23.55C136.317 23.3633 136.257 23.21 136.137 23.09C136.017 22.97 135.863 22.8767 135.677 22.81C135.497 22.7367 135.25 22.66 134.937 22.58C134.53 22.4733 134.2 22.3667 133.947 22.26C133.693 22.1533 133.477 21.9967 133.297 21.79C133.123 21.5767 133.037 21.2933 133.037 20.94C133.037 20.6733 133.117 20.4267 133.277 20.2C133.437 19.9733 133.663 19.7933 133.957 19.66C134.25 19.5267 134.583 19.46 134.957 19.46C135.543 19.46 136.017 19.61 136.377 19.91C136.737 20.2033 136.93 20.61 136.957 21.13H136.257C136.237 20.81 136.11 20.5533 135.877 20.36C135.65 20.16 135.337 20.06 134.937 20.06C134.583 20.06 134.297 20.1433 134.077 20.31C133.857 20.4767 133.747 20.6833 133.747 20.93C133.747 21.1433 133.81 21.32 133.937 21.46C134.07 21.5933 134.233 21.7 134.427 21.78C134.62 21.8533 134.88 21.9367 135.207 22.03C135.6 22.1367 135.913 22.24 136.147 22.34C136.38 22.44 136.58 22.5867 136.747 22.78C136.913 22.9733 137 23.23 137.007 23.55C137.007 23.8433 136.927 24.1067 136.767 24.34C136.607 24.5667 136.383 24.7467 136.097 24.88C135.81 25.0133 135.48 25.08 135.107 25.08ZM144.264 21.99C144.264 22.23 144.258 22.4133 144.244 22.54H139.714C139.734 22.9533 139.834 23.3067 140.014 23.6C140.194 23.8933 140.431 24.1167 140.724 24.27C141.018 24.4167 141.338 24.49 141.684 24.49C142.138 24.49 142.518 24.38 142.824 24.16C143.138 23.94 143.344 23.6433 143.444 23.27H144.184C144.051 23.8033 143.764 24.24 143.324 24.58C142.891 24.9133 142.344 25.08 141.684 25.08C141.171 25.08 140.711 24.9667 140.304 24.74C139.898 24.5067 139.578 24.18 139.344 23.76C139.118 23.3333 139.004 22.8367 139.004 22.27C139.004 21.7033 139.118 21.2067 139.344 20.78C139.571 20.3533 139.888 20.0267 140.294 19.8C140.701 19.5733 141.164 19.46 141.684 19.46C142.204 19.46 142.658 19.5733 143.044 19.8C143.438 20.0267 143.738 20.3333 143.944 20.72C144.158 21.1 144.264 21.5233 144.264 21.99ZM143.554 21.97C143.561 21.5633 143.478 21.2167 143.304 20.93C143.138 20.6433 142.908 20.4267 142.614 20.28C142.321 20.1333 142.001 20.06 141.654 20.06C141.134 20.06 140.691 20.2267 140.324 20.56C139.958 20.8933 139.754 21.3633 139.714 21.97H143.554ZM147.245 20.51C147.398 20.17 147.632 19.9067 147.945 19.72C148.265 19.5333 148.655 19.44 149.115 19.44V20.17H148.925C148.418 20.17 148.012 20.3067 147.705 20.58C147.398 20.8533 147.245 21.31 147.245 21.95V25H146.545V19.54H147.245V20.51ZM153.108 24.32L154.948 19.54H155.688L153.498 25H152.708L150.518 19.54H151.268L153.108 24.32ZM157.987 18.51C157.847 18.51 157.727 18.46 157.627 18.36C157.527 18.26 157.477 18.1367 157.477 17.99C157.477 17.8433 157.527 17.7233 157.627 17.63C157.727 17.53 157.847 17.48 157.987 17.48C158.127 17.48 158.247 17.53 158.347 17.63C158.447 17.7233 158.497 17.8433 158.497 17.99C158.497 18.1367 158.447 18.26 158.347 18.36C158.247 18.46 158.127 18.51 157.987 18.51ZM158.337 19.54V25H157.637V19.54H158.337ZM160.602 22.27C160.602 21.7033 160.715 21.21 160.942 20.79C161.169 20.3633 161.482 20.0367 161.882 19.81C162.282 19.5767 162.739 19.46 163.252 19.46C163.925 19.46 164.479 19.6267 164.912 19.96C165.352 20.2933 165.635 20.7467 165.762 21.32H165.012C164.919 20.9267 164.715 20.62 164.402 20.4C164.095 20.1733 163.712 20.06 163.252 20.06C162.885 20.06 162.555 20.1433 162.262 20.31C161.969 20.4767 161.735 20.7267 161.562 21.06C161.395 21.3867 161.312 21.79 161.312 22.27C161.312 22.75 161.395 23.1567 161.562 23.49C161.735 23.8233 161.969 24.0733 162.262 24.24C162.555 24.4067 162.885 24.49 163.252 24.49C163.712 24.49 164.095 24.38 164.402 24.16C164.715 23.9333 164.919 23.62 165.012 23.22H165.762C165.635 23.78 165.352 24.23 164.912 24.57C164.472 24.91 163.919 25.08 163.252 25.08C162.739 25.08 162.282 24.9667 161.882 24.74C161.482 24.5067 161.169 24.18 160.942 23.76C160.715 23.3333 160.602 22.8367 160.602 22.27ZM172.995 21.99C172.995 22.23 172.988 22.4133 172.975 22.54H168.445C168.465 22.9533 168.565 23.3067 168.745 23.6C168.925 23.8933 169.162 24.1167 169.455 24.27C169.748 24.4167 170.068 24.49 170.415 24.49C170.868 24.49 171.248 24.38 171.555 24.16C171.868 23.94 172.075 23.6433 172.175 23.27H172.915C172.782 23.8033 172.495 24.24 172.055 24.58C171.622 24.9133 171.075 25.08 170.415 25.08C169.902 25.08 169.442 24.9667 169.035 24.74C168.628 24.5067 168.308 24.18 168.075 23.76C167.848 23.3333 167.735 22.8367 167.735 22.27C167.735 21.7033 167.848 21.2067 168.075 20.78C168.302 20.3533 168.618 20.0267 169.025 19.8C169.432 19.5733 169.895 19.46 170.415 19.46C170.935 19.46 171.388 19.5733 171.775 19.8C172.168 20.0267 172.468 20.3333 172.675 20.72C172.888 21.1 172.995 21.5233 172.995 21.99ZM172.285 21.97C172.292 21.5633 172.208 21.2167 172.035 20.93C171.868 20.6433 171.638 20.4267 171.345 20.28C171.052 20.1333 170.732 20.06 170.385 20.06C169.865 20.06 169.422 20.2267 169.055 20.56C168.688 20.8933 168.485 21.3633 168.445 21.97H172.285ZM177.156 25.08C176.529 25.08 176.016 24.9367 175.616 24.65C175.222 24.3567 175.002 23.96 174.956 23.46H175.676C175.709 23.7667 175.852 24.0167 176.106 24.21C176.366 24.3967 176.712 24.49 177.146 24.49C177.526 24.49 177.822 24.4 178.036 24.22C178.256 24.04 178.366 23.8167 178.366 23.55C178.366 23.3633 178.306 23.21 178.186 23.09C178.066 22.97 177.912 22.8767 177.726 22.81C177.546 22.7367 177.299 22.66 176.986 22.58C176.579 22.4733 176.249 22.3667 175.996 22.26C175.742 22.1533 175.526 21.9967 175.346 21.79C175.172 21.5767 175.086 21.2933 175.086 20.94C175.086 20.6733 175.166 20.4267 175.326 20.2C175.486 19.9733 175.712 19.7933 176.006 19.66C176.299 19.5267 176.632 19.46 177.006 19.46C177.592 19.46 178.066 19.61 178.426 19.91C178.786 20.2033 178.979 20.61 179.006 21.13H178.306C178.286 20.81 178.159 20.5533 177.926 20.36C177.699 20.16 177.386 20.06 176.986 20.06C176.632 20.06 176.346 20.1433 176.126 20.31C175.906 20.4767 175.796 20.6833 175.796 20.93C175.796 21.1433 175.859 21.32 175.986 21.46C176.119 21.5933 176.282 21.7 176.476 21.78C176.669 21.8533 176.929 21.9367 177.256 22.03C177.649 22.1367 177.962 22.24 178.196 22.34C178.429 22.44 178.629 22.5867 178.796 22.78C178.962 22.9733 179.049 23.23 179.056 23.55C179.056 23.8433 178.976 24.1067 178.816 24.34C178.656 24.5667 178.432 24.7467 178.146 24.88C177.859 25.0133 177.529 25.08 177.156 25.08Z" fill="white"/>
<path d="M185.578 22.26C185.578 21.7 185.688 21.21 185.908 20.79C186.134 20.3633 186.444 20.0367 186.838 19.81C187.238 19.5767 187.688 19.46 188.188 19.46C188.708 19.46 189.154 19.58 189.528 19.82C189.908 20.06 190.181 20.3667 190.348 20.74V19.54H191.048V25H190.348V23.79C190.174 24.1633 189.898 24.4733 189.518 24.72C189.144 24.96 188.698 25.08 188.178 25.08C187.684 25.08 187.238 24.9633 186.838 24.73C186.444 24.4967 186.134 24.1667 185.908 23.74C185.688 23.3133 185.578 22.82 185.578 22.26ZM190.348 22.27C190.348 21.83 190.258 21.4433 190.078 21.11C189.898 20.7767 189.651 20.52 189.338 20.34C189.031 20.16 188.691 20.07 188.318 20.07C187.931 20.07 187.584 20.1567 187.278 20.33C186.971 20.5033 186.728 20.7567 186.548 21.09C186.374 21.4167 186.288 21.8067 186.288 22.26C186.288 22.7067 186.374 23.1 186.548 23.44C186.728 23.7733 186.971 24.03 187.278 24.21C187.584 24.3833 187.931 24.47 188.318 24.47C188.691 24.47 189.031 24.38 189.338 24.2C189.651 24.02 189.898 23.7633 190.078 23.43C190.258 23.0967 190.348 22.71 190.348 22.27ZM194.336 20.75C194.516 20.37 194.792 20.06 195.166 19.82C195.546 19.58 195.992 19.46 196.506 19.46C197.006 19.46 197.452 19.5767 197.846 19.81C198.239 20.0367 198.546 20.3633 198.766 20.79C198.992 21.21 199.106 21.7 199.106 22.26C199.106 22.82 198.992 23.3133 198.766 23.74C198.546 24.1667 198.236 24.4967 197.836 24.73C197.442 24.9633 196.999 25.08 196.506 25.08C195.986 25.08 195.536 24.9633 195.156 24.73C194.782 24.49 194.509 24.18 194.336 23.8V25H193.646V17.6H194.336V20.75ZM198.396 22.26C198.396 21.8067 198.306 21.4167 198.126 21.09C197.952 20.7567 197.712 20.5033 197.406 20.33C197.099 20.1567 196.752 20.07 196.366 20.07C195.992 20.07 195.649 20.16 195.336 20.34C195.029 20.52 194.786 20.7767 194.606 21.11C194.426 21.4433 194.336 21.83 194.336 22.27C194.336 22.71 194.426 23.0967 194.606 23.43C194.786 23.7633 195.029 24.02 195.336 24.2C195.649 24.38 195.992 24.47 196.366 24.47C196.752 24.47 197.099 24.3833 197.406 24.21C197.712 24.03 197.952 23.7733 198.126 23.44C198.306 23.1 198.396 22.7067 198.396 22.26ZM203.784 25.08C203.27 25.08 202.807 24.9667 202.394 24.74C201.987 24.5067 201.664 24.18 201.424 23.76C201.19 23.3333 201.074 22.8367 201.074 22.27C201.074 21.7033 201.194 21.21 201.434 20.79C201.674 20.3633 202 20.0367 202.414 19.81C202.827 19.5767 203.29 19.46 203.804 19.46C204.317 19.46 204.78 19.5767 205.194 19.81C205.614 20.0367 205.94 20.3633 206.174 20.79C206.414 21.21 206.534 21.7033 206.534 22.27C206.534 22.83 206.414 23.3233 206.174 23.75C205.934 24.1767 205.604 24.5067 205.184 24.74C204.764 24.9667 204.297 25.08 203.784 25.08ZM203.784 24.47C204.144 24.47 204.477 24.39 204.784 24.23C205.09 24.0633 205.337 23.8167 205.524 23.49C205.717 23.1567 205.814 22.75 205.814 22.27C205.814 21.79 205.72 21.3867 205.534 21.06C205.347 20.7267 205.1 20.48 204.794 20.32C204.487 20.1533 204.154 20.07 203.794 20.07C203.434 20.07 203.1 20.1533 202.794 20.32C202.487 20.48 202.24 20.7267 202.054 21.06C201.874 21.3867 201.784 21.79 201.784 22.27C201.784 22.75 201.874 23.1567 202.054 23.49C202.24 23.8167 202.484 24.0633 202.784 24.23C203.09 24.39 203.424 24.47 203.784 24.47ZM213.54 19.54V25H212.84V24.04C212.68 24.38 212.433 24.64 212.1 24.82C211.766 25 211.393 25.09 210.98 25.09C210.326 25.09 209.793 24.89 209.38 24.49C208.966 24.0833 208.76 23.4967 208.76 22.73V19.54H209.45V22.65C209.45 23.2433 209.596 23.6967 209.89 24.01C210.19 24.3233 210.596 24.48 211.11 24.48C211.636 24.48 212.056 24.3133 212.37 23.98C212.683 23.6467 212.84 23.1567 212.84 22.51V19.54H213.54ZM217.048 20.13V23.52C217.048 23.8533 217.111 24.0833 217.238 24.21C217.365 24.3367 217.588 24.4 217.908 24.4H218.548V25H217.798C217.305 25 216.938 24.8867 216.698 24.66C216.458 24.4267 216.338 24.0467 216.338 23.52V20.13H215.578V19.54H216.338V18.17H217.048V19.54H218.548V20.13H217.048Z" fill="white"/>
</g>
<defs>
<clipPath id="clip0_128_3">
<rect width="218" height="159" fill="white" transform="translate(5 15)"/>
</clipPath>
</defs>
</svg>
