<svg width="410" height="174" viewBox="0 0 410 174" fill="none" xmlns="http://www.w3.org/2000/svg">
<g clip-path="url(#clip0_134_7)">
<rect width="410" height="174" rx="15" fill="#808080"/>
<g filter="url(#filter0_f_134_7)">
<ellipse cx="7.5" cy="10" rx="28.5" ry="27" fill="white"/>
</g>
<g filter="url(#filter1_f_134_7)">
<ellipse cx="237.5" rx="28.5" ry="27" fill="#8CF1F8"/>
</g>
<g filter="url(#filter2_f_134_7)">
<path d="M176 105.5C176 98.6807 173.992 91.9905 170.191 86.1493C166.391 80.308 160.942 75.5369 154.432 72.3492C147.921 69.1616 140.595 67.6781 133.241 68.0584C125.888 68.4387 118.786 70.6683 112.699 74.5075C106.612 78.3467 101.771 83.65 98.6971 89.8467C95.6229 96.0435 94.4318 102.899 95.2519 109.676C96.0721 116.453 98.8725 122.894 103.352 128.307C107.831 133.721 113.82 137.9 120.673 140.397L135.5 105.5H176Z" fill="#D2691E"/>
</g>
<g filter="url(#filter3_f_134_7)">
<path d="M86 95.5C86 88.6807 83.9918 81.9905 80.1914 76.1493C76.391 70.308 70.9423 65.5369 64.4316 62.3492C57.921 59.1616 50.5948 57.6781 43.2414 58.0584C35.888 58.4387 28.7859 60.6683 22.6991 64.5075C16.6123 68.3467 11.7713 73.65 8.6971 79.8467C5.62287 86.0435 4.43175 92.8992 5.25191 99.6761C6.07207 106.453 8.87246 112.894 13.3517 118.307C17.831 123.721 23.8196 127.9 30.6732 130.397L45.5 95.5H86Z" fill="#D2691E"/>
</g>
<g filter="url(#filter4_f_134_7)">
<ellipse cx="346.5" cy="16" rx="28.5" ry="27" fill="#800080"/>
</g>
<g filter="url(#filter5_f_134_7)">
<rect y="164" width="410" height="26" fill="white"/>
</g>
</g>
<defs>
<filter id="filter0_f_134_7" x="-75" y="-71" width="165" height="162" filterUnits="userSpaceOnUse" color-interpolation-filters="sRGB">
<feFlood flood-opacity="0" result="BackgroundImageFix"/>
<feBlend mode="normal" in="SourceGraphic" in2="BackgroundImageFix" result="shape"/>
<feGaussianBlur stdDeviation="27" result="effect1_foregroundBlur_134_7"/>
</filter>
<filter id="filter1_f_134_7" x="155" y="-81" width="165" height="162" filterUnits="userSpaceOnUse" color-interpolation-filters="sRGB">
<feFlood flood-opacity="0" result="BackgroundImageFix"/>
<feBlend mode="normal" in="SourceGraphic" in2="BackgroundImageFix" result="shape"/>
<feGaussianBlur stdDeviation="27" result="effect1_foregroundBlur_134_7"/>
</filter>
<filter id="filter2_f_134_7" x="-1.00002" y="-28" width="273" height="264.397" filterUnits="userSpaceOnUse" color-interpolation-filters="sRGB">
<feFlood flood-opacity="0" result="BackgroundImageFix"/>
<feBlend mode="normal" in="SourceGraphic" in2="BackgroundImageFix" result="shape"/>
<feGaussianBlur stdDeviation="48" result="effect1_foregroundBlur_134_7"/>
</filter>
<filter id="filter3_f_134_7" x="-91" y="-38" width="273" height="264.397" filterUnits="userSpaceOnUse" color-interpolation-filters="sRGB">
<feFlood flood-opacity="0" result="BackgroundImageFix"/>
<feBlend mode="normal" in="SourceGraphic" in2="BackgroundImageFix" result="shape"/>
<feGaussianBlur stdDeviation="48" result="effect1_foregroundBlur_134_7"/>
</filter>
<filter id="filter4_f_134_7" x="228" y="-101" width="237" height="234" filterUnits="userSpaceOnUse" color-interpolation-filters="sRGB">
<feFlood flood-opacity="0" result="BackgroundImageFix"/>
<feBlend mode="normal" in="SourceGraphic" in2="BackgroundImageFix" result="shape"/>
<feGaussianBlur stdDeviation="45" result="effect1_foregroundBlur_134_7"/>
</filter>
<filter id="filter5_f_134_7" x="-61" y="103" width="532" height="148" filterUnits="userSpaceOnUse" color-interpolation-filters="sRGB">
<feFlood flood-opacity="0" result="BackgroundImageFix"/>
<feBlend mode="normal" in="SourceGraphic" in2="BackgroundImageFix" result="shape"/>
<feGaussianBlur stdDeviation="30.5" result="effect1_foregroundBlur_134_7"/>
</filter>
<clipPath id="clip0_134_7">
<rect width="410" height="174" rx="15" fill="white"/>
</clipPath>
</defs>
</svg>
